<svg preserveAspectRatio="none" width="100%" height="100%" overflow="visible" style="display: block;" viewBox="0 0 75.1678 22.1642" fill="none" xmlns="http://www.w3.org/2000/svg">
<g id="Union">
<path d="M34.8301 17.249C35.5149 17.249 35.9885 17.5434 36.2957 17.857L35.7901 18.4586C35.5597 18.2346 35.2909 18.0618 34.8621 18.0618C34.0749 18.0618 33.5245 18.6762 33.5245 19.6938C33.5245 20.7242 33.9981 21.345 34.9261 21.345C35.1565 21.345 35.3869 21.281 35.5213 21.1658V20.2314H34.6829V19.457H36.3661V21.5946C36.0461 21.9082 35.4893 22.1642 34.8301 22.1642C33.5373 22.1642 32.5581 21.3066 32.5581 19.7258C32.5581 18.1642 33.5693 17.249 34.8301 17.249Z" fill="var(--fill-0, #767676)"/>
<path d="M41.9665 20.0266C41.9665 21.0122 42.3057 21.345 42.8625 21.345C43.4257 21.345 43.7841 21.0122 43.7841 20.0266V17.3386H44.6929V19.9434C44.6929 21.5178 44.0209 22.1642 42.8625 22.1642C41.7105 22.1642 41.0193 21.5178 41.0193 19.9434V17.3386H41.9665V20.0266Z" fill="var(--fill-0, #767676)"/>
<path d="M52.6801 17.249C53.3649 17.249 53.8385 17.5434 54.1457 17.857L53.6401 18.4586C53.4097 18.2346 53.1409 18.0618 52.7121 18.0618C51.9249 18.0618 51.3745 18.6762 51.3745 19.6938C51.3745 20.7242 51.8481 21.345 52.7761 21.345C53.0065 21.345 53.2369 21.281 53.3713 21.1658V20.2314H52.5329V19.457H54.2161V21.5946C53.8961 21.9082 53.3393 22.1642 52.6801 22.1642C51.3873 22.1642 50.4081 21.3066 50.4081 19.7258C50.4081 18.1642 51.4193 17.249 52.6801 17.249Z" fill="var(--fill-0, #767676)"/>
<path d="M57.277 17.249C57.9618 17.249 58.4354 17.5434 58.7426 17.857L58.237 18.4586C58.0066 18.2346 57.7378 18.0618 57.309 18.0618C56.5218 18.0618 55.9714 18.6762 55.9714 19.6938C55.9714 20.7242 56.445 21.345 57.373 21.345C57.6034 21.345 57.8338 21.281 57.9682 21.1658V20.2314H57.1298V19.457H58.813V21.5946C58.493 21.9082 57.9362 22.1642 57.277 22.1642C55.9842 22.1642 55.005 21.3066 55.005 19.7258C55.005 18.1642 56.0162 17.249 57.277 17.249Z" fill="var(--fill-0, #767676)"/>
<path fill-rule="evenodd" clip-rule="evenodd" d="M61.7203 17.249C62.9747 17.249 63.8387 18.1514 63.8387 19.6874C63.8387 21.2234 62.9747 22.1642 61.7203 22.1642C60.4659 22.1642 59.6019 21.2234 59.6019 19.6874C59.6019 18.145 60.4659 17.249 61.7203 17.249ZM61.7203 18.0618C61.0163 18.0618 60.5683 18.6698 60.5683 19.6874C60.5683 20.6986 61.0163 21.345 61.7203 21.345C62.4243 21.345 62.8723 20.6986 62.8723 19.6874C62.8723 18.6698 62.4243 18.0618 61.7203 18.0618Z" fill="var(--fill-0, #767676)"/>
<path fill-rule="evenodd" clip-rule="evenodd" d="M66.6547 17.249C67.9091 17.249 68.7731 18.1514 68.7731 19.6874C68.7731 21.2234 67.9091 22.1642 66.6547 22.1642C65.4003 22.1642 64.5363 21.2234 64.5363 19.6874C64.5363 18.145 65.4003 17.249 66.6547 17.249ZM66.6547 18.0618C65.9507 18.0618 65.5027 18.6698 65.5027 19.6874C65.5027 20.6986 65.9507 21.345 66.6547 21.345C67.3587 21.345 67.8067 20.6986 67.8067 19.6874C67.8067 18.6698 67.3587 18.0618 66.6547 18.0618Z" fill="var(--fill-0, #767676)"/>
<path d="M2.91709 21.281H4.83709V22.0746H1.96991V17.3386H2.91709V21.281Z" fill="var(--fill-0, #767676)"/>
<path fill-rule="evenodd" clip-rule="evenodd" d="M9.18738 22.0746H8.19538L7.86259 20.8586H6.32659L5.99378 22.0746H5.03378L6.55059 17.3386H7.66419L9.18738 22.0746ZM7.07538 18.0554C6.95378 18.5738 6.81299 19.1114 6.67219 19.6042L6.53138 20.1226H7.65778L7.51697 19.6042C7.36977 19.1114 7.24177 18.5674 7.10097 18.0554H7.07538Z" fill="var(--fill-0, #767676)"/>
<path d="M10.628 19.649C10.6984 20.1482 10.7752 20.6538 10.8456 21.1594H10.8712C10.9672 20.6538 11.0696 20.1418 11.172 19.649L11.7224 17.3386H12.5288L13.0792 19.649C13.1816 20.1354 13.2776 20.6474 13.38 21.1594H13.412C13.4824 20.6474 13.5528 20.1418 13.6232 19.649L13.9944 17.3386H14.8968L14.02 22.0746H12.8424L12.3112 19.7322C12.2344 19.361 12.164 18.9962 12.1064 18.6378H12.0808C12.0168 18.9962 11.9528 19.361 11.876 19.7322L11.3576 22.0746H10.1992L9.28397 17.3386H10.2504L10.628 19.649Z" fill="var(--fill-0, #767676)"/>
<path d="M18.5352 18.1258H16.564V19.361H18.2472V20.1546H16.564V22.0746H15.6168V17.3386H18.5352V18.1258Z" fill="var(--fill-0, #767676)"/>
<path d="M20.3171 22.0746H19.3699V17.3386H20.3171V22.0746Z" fill="var(--fill-0, #767676)"/>
<path fill-rule="evenodd" clip-rule="evenodd" d="M23.143 17.3386C24.135 17.3386 24.9222 17.6842 24.9222 18.7722C24.9222 19.4826 24.5638 19.9242 24.0198 20.1354L25.127 22.0746H24.071L23.0982 20.2826H22.439V22.0746H21.4918V17.3386H23.143ZM22.439 19.5338H23.0534C23.6614 19.5338 23.9942 19.2778 23.9942 18.7722C23.9942 18.2602 23.6614 18.0874 23.0534 18.0874H22.439V19.5338Z" fill="var(--fill-0, #767676)"/>
<path d="M27.7197 19.553C27.8221 19.8474 27.9117 20.161 28.0077 20.4682H28.0397C28.1421 20.161 28.2253 19.8474 28.3277 19.553L29.1148 17.3386H30.1645V22.0746H29.3005V20.097C29.3005 19.649 29.3709 18.9898 29.4157 18.5418H29.3901L29.0061 19.6554L28.2765 21.6458H27.7325L26.9965 19.6554L26.6188 18.5418H26.5933C26.6381 18.9898 26.7148 19.649 26.7148 20.097V22.0746H25.8637V17.3386H26.9133L27.7197 19.553Z" fill="var(--fill-0, #767676)"/>
<path d="M38.2494 18.4906C38.3838 18.8426 38.5118 19.1754 38.659 19.5402H38.6846C38.8318 19.1754 38.9726 18.8426 39.107 18.4906L39.5806 17.3386H40.5662L39.139 20.3402V22.0746H38.1918V20.3402L36.771 17.3386H37.7758L38.2494 18.4906Z" fill="var(--fill-0, #767676)"/>
<path d="M48.1842 19.8602L48.6578 20.8842H48.6898C48.6386 20.3914 48.5682 19.7642 48.5682 19.2266V17.3386H49.4642V22.0746H48.5042L47.1346 19.5402L46.6546 18.5226H46.6226C46.6674 19.0346 46.7378 19.6298 46.7378 20.1738V22.0746H45.8418V17.3386H46.8082L48.1842 19.8602Z" fill="var(--fill-0, #767676)"/>
<path d="M70.6546 19.393H70.6738L72.2418 17.3386H73.285L71.8386 19.201L73.541 22.0746H72.4978L71.2754 19.9498L70.6546 20.7434V22.0746H69.7074V17.3386H70.6546V19.393Z" fill="var(--fill-0, #767676)"/>
<path d="M73.5358 1.76C73.5358 2.848 73.5358 4.096 73.2158 5.744H75.1678V7.072H69.4398V9.44H73.5998V14.448H71.9518V10.768H63.4078V9.44H67.7758V7.072H62.0798V5.744H71.5678C71.8878 4.192 71.9198 3.024 71.9198 1.984H63.7118V0.656H73.5358V1.76Z" fill="var(--fill-0, #767676)"/>
<path fill-rule="evenodd" clip-rule="evenodd" d="M54.554 8.672C57.482 8.672 59.386 9.76 59.386 11.52C59.386 13.296 57.482 14.384 54.554 14.384C51.626 14.384 49.738 13.296 49.738 11.52C49.738 9.76 51.626 8.672 54.554 8.672ZM54.554 9.968C52.602 9.968 51.37 10.528 51.37 11.52C51.37 12.528 52.602 13.088 54.554 13.088C56.522 13.088 57.754 12.528 57.754 11.52C57.754 10.528 56.522 9.968 54.554 9.968Z" fill="var(--fill-0, #767676)"/>
<path d="M20.6643 10.4557H16.2745V14.1523H15.022V10.4557H10.7053V9.44641H20.6643V10.4557Z" fill="var(--fill-0, #767676)"/>
<path fill-rule="evenodd" clip-rule="evenodd" d="M2.69953 10.857H7.34466V9.68959H8.59713V14.0064H1.45922V9.68959H2.69953V10.857ZM2.69953 12.9971H7.34466V11.8419H2.69953V12.9971Z" fill="var(--fill-0, #767676)"/>
<path fill-rule="evenodd" clip-rule="evenodd" d="M25.1314 10.857H29.7765V9.68959H31.029V14.0064H23.8911V9.68959H25.1314V10.857ZM25.1314 12.9971H29.7765V11.8419H25.1314V12.9971Z" fill="var(--fill-0, #767676)"/>
<path d="M36.2866 12.9242H42.5125V13.9456H35.0219V10.3463H36.2866V12.9242Z" fill="var(--fill-0, #767676)"/>
<path d="M42.1963 11.1488H40.9438V3.17184H42.1963V11.1488Z" fill="var(--fill-0, #767676)"/>
<path fill-rule="evenodd" clip-rule="evenodd" d="M36.2744 3.90144C37.9281 3.90144 39.1806 5.04448 39.1806 6.64959C39.1806 8.24255 37.9281 9.39775 36.2744 9.39775C34.6206 9.39774 33.356 8.24255 33.356 6.64959C33.356 5.04448 34.6206 3.90144 36.2744 3.90144ZM36.2744 4.98369C35.3016 4.98369 34.5842 5.64032 34.5842 6.64959C34.5842 7.64671 35.3016 8.31553 36.2744 8.31553C37.235 8.31553 37.9646 7.64671 37.9646 6.64959C37.9646 5.64032 37.235 4.98369 36.2744 4.98369Z" fill="var(--fill-0, #767676)"/>
<path fill-rule="evenodd" clip-rule="evenodd" d="M8.59713 3.17184V9.19103H7.34466V6.80769H5.05856V8.81409H0V3.71903H1.24034V5.27553H3.83041V3.73119H5.05856V5.78625H7.34466V3.15969L8.59713 3.17184ZM1.24034 7.79266H3.83041V6.24831H1.24034V7.79266Z" fill="var(--fill-0, #767676)"/>
<path fill-rule="evenodd" clip-rule="evenodd" d="M31.029 3.17184V9.19103H29.7765V6.80769H27.4904V8.81409H22.4319V3.71903H23.6722V5.27553H26.2623V3.73119H27.4904V5.78625H29.7765V3.15969L31.029 3.17184ZM23.6722 7.79266H26.2623V6.24831H23.6722V7.79266Z" fill="var(--fill-0, #767676)"/>
<path d="M59.29 8.496H57.642V6.832H54.138V5.488H57.642V3.824H54.282C53.386 6.128 51.258 7.744 48.138 8.656L47.482 7.344C50.874 6.4 52.746 4.624 53.034 2.368H48.234V1.04H54.794C54.794 1.552 54.746 2.032 54.666 2.48H57.642V0H59.29V8.496Z" fill="var(--fill-0, #767676)"/>
<path fill-rule="evenodd" clip-rule="evenodd" d="M19.424 8.09663H11.9213V3.75553H19.424V8.09663ZM13.1616 7.08738H18.1836V4.75263H13.1616V7.08738Z" fill="var(--fill-0, #767676)"/>
</g>
</svg>
