<svg preserveAspectRatio="none" width="100%" height="100%" overflow="visible" style="display: block;" viewBox="0 0 32 32" fill="none" xmlns="http://www.w3.org/2000/svg">
<g id="Frame 1707481204">
<path id="&#237;&#140;&#168;&#236;&#138;&#164; 186-3" d="M22.1422 0H9.85781C4.41073 0 0 4.409 0 9.85393V22.1461C0 27.591 4.41073 32 9.85781 32H22.1422C27.5893 32 32 27.591 32 22.1461V9.86656C32 4.42163 27.5893 0.0126332 22.1548 0H22.1422ZM28.9289 20.9585C28.9289 25.3549 25.3649 28.9301 20.9668 28.9301H11.0332C6.63507 28.9301 3.05845 25.3675 3.05845 20.9712V11.0415C3.05845 6.64509 6.62243 3.06988 11.0332 3.06988H20.9542C25.3523 3.06988 28.9289 6.63245 28.9289 11.0415V20.9585Z" fill="var(--fill-0, white)"/>
<path id="&#237;&#140;&#168;&#236;&#138;&#164; 187-3" d="M16.4297 7.62891C11.7788 7.62891 8 11.4062 8 16.0553C8 20.7043 11.7788 24.4816 16.4297 24.4816C21.0806 24.4816 24.8594 20.7043 24.8594 16.0553C24.8594 11.4062 21.0806 7.62891 16.4297 7.62891ZM16.4297 21.1338C13.624 21.1338 11.3618 18.8599 11.3618 16.0679C11.3618 13.276 13.6367 11.002 16.4297 11.002C19.2228 11.002 21.4976 13.276 21.4976 16.0679C21.4976 18.8725 19.2228 21.1338 16.4297 21.1338Z" fill="var(--fill-0, white)"/>
<path id="&#237;&#140;&#168;&#236;&#138;&#164; 188-3" d="M26.422 7.49531C26.422 8.68283 25.4615 9.64296 24.2735 9.64296C23.0855 9.64296 22.125 8.68283 22.125 7.49531C22.125 6.30778 23.0855 5.34766 24.2735 5.34766C25.4615 5.34766 26.422 6.30778 26.422 7.49531Z" fill="var(--fill-0, white)"/>
</g>
</svg>
