<svg preserveAspectRatio="none" width="100%" height="100%" overflow="visible" style="display: block;" viewBox="0 0 24 21.5273" fill="none" xmlns="http://www.w3.org/2000/svg">
<g id="Group 35042">
<path id="Exclude" d="M19.9219 0C22.1652 0.000140356 23.9999 1.83483 24 4.07812V13.9238C23.9998 16.1594 22.1729 17.9939 19.9297 17.9941H14.2705L13.3066 19.6592L12.3584 21.3018C12.1811 21.6022 11.7497 21.6022 11.5801 21.3018L10.6318 19.6592L9.66797 17.9941H4.07031C1.83478 17.9939 0.000154436 16.1671 0 13.9238V4.07031C0.000194988 1.83481 1.8271 0.000195352 4.07031 0H19.9219ZM17.9238 7.22168C16.7906 7.22168 15.8731 8.16989 15.873 9.33398C15.873 10.4981 16.7905 11.4463 17.9238 11.4463C18.3941 11.4463 18.8258 11.2845 19.165 11.0146V11.6006C19.165 11.6006 19.0412 12.1787 18.1777 12.1787V13.2656C18.1777 13.2656 19.1107 13.3736 19.9434 12.541C19.9434 12.541 20.3293 12.1324 20.4141 11.5928V7.30664H19.165V7.65332C18.8181 7.38351 18.3864 7.22169 17.9238 7.22168ZM3.56836 11.4902H4.80176V11.0967C5.14869 11.4051 5.58851 11.5977 6.07422 11.5977C7.17658 11.5975 8.07031 10.6185 8.07031 9.4082C8.07028 8.19791 7.18427 7.21108 6.07422 7.21094C5.59624 7.21094 5.14868 7.39584 4.80176 7.71191V5.90039H3.56836V11.4902ZM13.1133 7.21875C11.8875 7.21875 10.8926 8.19783 10.8926 9.4082C10.8926 10.6186 11.8875 11.5977 13.1133 11.5977C14.339 11.5975 15.333 10.6185 15.333 9.4082C15.333 8.19794 14.3466 7.21893 13.1133 7.21875ZM8.2207 5.80176V6.91992C8.2207 6.91992 8.79148 6.99764 8.89941 7.55273V11.5H10.1709V7.52148C10.0938 6.96641 9.7627 6.5498 9.7627 6.5498C9.04161 5.69841 8.22874 5.80072 8.2207 5.80176ZM5.82715 8.30566C6.44386 8.30566 6.93741 8.79141 6.9375 9.40039C6.9375 10.0095 6.44392 10.4951 5.82715 10.4951C5.37233 10.4951 4.97917 10.2252 4.80957 9.83203C4.75565 9.70103 4.7168 9.55449 4.7168 9.40039C4.71682 9.24626 4.74792 9.09977 4.80957 8.96875C4.97918 8.57562 5.37235 8.30571 5.82715 8.30566ZM13.1133 8.35938C13.699 8.35956 14.1767 8.83013 14.1768 9.4082C14.1768 9.98631 13.7068 10.4569 13.1133 10.457C12.5274 10.457 12.0488 9.98642 12.0488 9.4082C12.0489 8.83002 12.5274 8.35938 13.1133 8.35938ZM18.1553 8.24707C18.5946 8.24714 18.98 8.49404 19.165 8.84863C19.242 8.995 19.2802 9.15671 19.2803 9.32617C19.2803 9.49578 19.2344 9.66591 19.165 9.80469C18.98 10.1669 18.5946 10.4052 18.1553 10.4053C17.5308 10.4053 17.0293 9.91981 17.0293 9.32617C17.0294 8.73264 17.5386 8.24707 18.1553 8.24707Z" fill="var(--fill-0, white)"/>
</g>
</svg>
