<svg preserveAspectRatio="none" width="100%" height="100%" overflow="visible" style="display: block;" viewBox="0 0 70 70" fill="none" xmlns="http://www.w3.org/2000/svg">
<g id="Frame 1707488180">
<path id="Quote Mark" d="M17.7148 34.707C19.668 34.1862 21.4909 34.2513 23.1836 34.9023C25.0065 35.4232 26.569 36.2695 27.8711 37.4414C29.3034 38.6133 30.4102 40.0456 31.1914 41.7383C32.1029 43.431 32.5586 45.1237 32.5586 46.8164C32.5586 50.2018 31.3216 53.3268 28.8477 56.1914C26.3737 58.9258 23.1185 60.293 19.082 60.293C14.1341 60.293 10.293 58.5352 7.55859 55.0195C4.95443 51.3737 3.65234 46.8815 3.65234 41.543C3.65234 34.2513 5.60547 27.7409 9.51172 22.0117C13.418 16.2826 19.2122 12.181 26.8945 9.70703L30.6055 14.7852C25.918 16.6081 22.207 19.1471 19.4727 22.4023C16.8685 25.5273 15.5664 29.1081 15.5664 33.1445C15.5664 34.707 16.2826 35.2279 17.7148 34.707ZM51.5039 34.707C53.457 34.1862 55.3451 34.2513 57.168 34.9023C58.9909 35.4232 60.5534 36.2695 61.8555 37.4414C63.2878 38.6133 64.3945 40.0456 65.1758 41.7383C65.957 43.431 66.3477 45.1237 66.3477 46.8164C66.3477 50.2018 65.1107 53.3268 62.6367 56.1914C60.1628 58.9258 56.9076 60.293 52.8711 60.293C47.9232 60.293 44.082 58.5352 41.3477 55.0195C38.7435 51.3737 37.4414 46.8815 37.4414 41.543C37.4414 34.2513 39.3945 27.7409 43.3008 22.0117C47.207 16.2826 53.0013 12.181 60.6836 9.70703L64.3945 14.7852C59.707 16.6081 55.9961 19.1471 53.2617 22.4023C50.6576 25.5273 49.3555 29.1081 49.3555 33.1445C49.3555 34.707 50.0716 35.2279 51.5039 34.707Z" fill="var(--fill-0, #58BDC2)"/>
</g>
</svg>
