<svg preserveAspectRatio="none" width="100%" height="100%" overflow="visible" style="display: block;" viewBox="0 0 62.6953 50.5859" fill="none" xmlns="http://www.w3.org/2000/svg">
<path id="Quote Mark" d="M14.0625 25C16.0156 24.4792 17.8385 24.5443 19.5312 25.1953C21.3542 25.7161 22.9167 26.5625 24.2188 27.7344C25.651 28.9062 26.7578 30.3385 27.5391 32.0312C28.4505 33.724 28.9062 35.4167 28.9062 37.1094C28.9062 40.4948 27.6693 43.6198 25.1953 46.4844C22.7214 49.2188 19.4661 50.5859 15.4297 50.5859C10.4818 50.5859 6.64062 48.8281 3.90625 45.3125C1.30208 41.6667 0 37.1745 0 31.8359C0 24.5443 1.95312 18.0339 5.85938 12.3047C9.76562 6.57552 15.5599 2.47396 23.2422 0L26.9531 5.07812C22.2656 6.90104 18.5547 9.4401 15.8203 12.6953C13.2161 15.8203 11.9141 19.401 11.9141 23.4375C11.9141 25 12.6302 25.5208 14.0625 25ZM47.8516 25C49.8047 24.4792 51.6927 24.5443 53.5156 25.1953C55.3385 25.7161 56.901 26.5625 58.2031 27.7344C59.6354 28.9062 60.7422 30.3385 61.5234 32.0312C62.3047 33.724 62.6953 35.4167 62.6953 37.1094C62.6953 40.4948 61.4583 43.6198 58.9844 46.4844C56.5104 49.2188 53.2552 50.5859 49.2188 50.5859C44.2708 50.5859 40.4297 48.8281 37.6953 45.3125C35.0911 41.6667 33.7891 37.1745 33.7891 31.8359C33.7891 24.5443 35.7422 18.0339 39.6484 12.3047C43.5547 6.57552 49.349 2.47396 57.0312 0L60.7422 5.07812C56.0547 6.90104 52.3438 9.4401 49.6094 12.6953C47.0052 15.8203 45.7031 19.401 45.7031 23.4375C45.7031 25 46.4193 25.5208 47.8516 25Z" fill="var(--fill-0, #53F7FF)"/>
</svg>
