<svg preserveAspectRatio="none" width="100%" height="100%" overflow="visible" style="display: block;" viewBox="0 0 84 84" fill="none" xmlns="http://www.w3.org/2000/svg">
<g id="Frame">
<path id="Vector" d="M26.25 77C36.8816 77 45.5 68.3816 45.5 57.75C45.5 47.1184 36.8816 38.5 26.25 38.5C15.6185 38.5 7 47.1184 7 57.75C7 61.2563 7.93741 64.5435 9.5753 67.375L7.9625 76.0375L16.625 74.4247C19.4564 76.0627 22.7437 77 26.25 77Z" stroke="var(--stroke-0, black)" stroke-width="3" stroke-linecap="round" stroke-linejoin="round"/>
<path id="Vector_2" d="M53.4878 62.6423C56.9048 62.0918 60.1147 60.9228 62.9994 59.254L75.5994 61.6L73.2533 49C75.6358 44.8816 76.9994 40.0999 76.9994 35C76.9994 19.536 64.4634 7 48.9994 7C34.9035 7 23.2405 17.4159 21.2871 30.9709" stroke="var(--stroke-0, black)" stroke-width="3" stroke-linecap="round" stroke-linejoin="round"/>
</g>
</svg>
