<svg preserveAspectRatio="none" width="100%" height="100%" overflow="visible" style="display: block;" viewBox="0 0 72 72" fill="none" xmlns="http://www.w3.org/2000/svg">
<g id="Frame">
<path id="Vector" d="M36 36C42.6273 36 48 30.6273 48 24C48 17.3726 42.6273 12 36 12C29.3726 12 24 17.3726 24 24C24 30.6273 29.3726 36 36 36Z" stroke="var(--stroke-0, black)" stroke-width="3" stroke-linecap="round" stroke-linejoin="round"/>
<path id="Vector_2" d="M66 51.8394C66 53.6436 65.2875 55.3764 64.0149 56.6583C61.0857 59.6103 58.245 62.6883 55.2063 65.5329C54.51 66.1755 53.4051 66.1521 52.7385 65.4804L43.9845 56.6583C41.3385 53.9916 41.3385 49.6869 43.9845 47.0202C46.6566 44.3274 51.0096 44.3274 53.6814 47.0202L53.9997 47.3409L54.3177 47.0202C55.599 45.7287 57.3438 45 59.1663 45C60.9891 45 62.7339 45.7284 64.0149 47.0202C65.2875 48.3021 66 50.0352 66 51.8394Z" stroke="var(--stroke-0, black)" stroke-width="3" stroke-linejoin="round"/>
<path id="Vector_3" d="M15 60V57C15 45.402 24.402 36 36 36C39.2208 36 42.2721 36.7251 45 38.0208" stroke="var(--stroke-0, black)" stroke-width="3" stroke-linecap="round" stroke-linejoin="round"/>
</g>
</svg>
