<svg preserveAspectRatio="none" width="100%" height="100%" overflow="visible" style="display: block;" viewBox="0 0 84 84" fill="none" xmlns="http://www.w3.org/2000/svg">
<g id="Frame">
<path id="Vector" d="M56 21.9791C56 24.0841 55.1687 26.1059 53.684 27.6014C50.2666 31.0452 46.9525 34.6362 43.4073 37.9551C42.595 38.7048 41.306 38.6775 40.5283 37.8938L30.3153 27.6014C27.2283 24.4904 27.2283 19.4679 30.3153 16.3569C33.4326 13.2153 38.5112 13.2153 41.6283 16.3569L41.9996 16.7309L42.3706 16.3571C43.8655 14.85 45.9011 14 48.0274 14C50.154 14 52.1895 14.8499 53.684 16.3569C55.1687 17.8526 56 19.8742 56 21.9791Z" stroke="var(--stroke-0, black)" stroke-width="3" stroke-linejoin="round"/>
<path id="Vector_2" d="M63 70L76.3851 56.6149C76.7788 56.2212 77 55.6871 77 55.1303V36.75C77 33.8505 74.6494 31.5 71.75 31.5C68.8506 31.5 66.5 33.8505 66.5 36.75V52.5" stroke="var(--stroke-0, black)" stroke-width="3" stroke-linecap="round" stroke-linejoin="round"/>
<path id="Vector_3" d="M63 56.0004L66.0034 52.997C66.3215 52.6789 66.5 52.2477 66.5 51.7983C66.5 51.156 66.1371 50.5691 65.5627 50.2817L64.0126 49.5068C61.3179 48.1593 58.0629 48.6875 55.9324 50.8179L52.8003 53.9501C51.4875 55.2629 50.75 57.0434 50.75 58.8998V70.0004" stroke="var(--stroke-0, black)" stroke-width="3" stroke-linecap="round" stroke-linejoin="round"/>
<path id="Vector_4" d="M21 70L7.61509 56.6149C7.22124 56.2212 7 55.6871 7 55.1303V36.75C7 33.8505 9.3505 31.5 12.25 31.5C15.1495 31.5 17.5 33.8505 17.5 36.75V52.5" stroke="var(--stroke-0, black)" stroke-width="3" stroke-linecap="round" stroke-linejoin="round"/>
<path id="Vector_5" d="M21 56.0004L17.9965 52.997C17.6786 52.6789 17.5 52.2477 17.5 51.7983C17.5 51.156 17.8628 50.5691 18.4372 50.2817L19.9873 49.5068C22.6822 48.1593 25.9371 48.6875 28.0676 50.8179L31.1997 53.9501C32.5125 55.2629 33.25 57.0434 33.25 58.8998V70.0004" stroke="var(--stroke-0, black)" stroke-width="3" stroke-linecap="round" stroke-linejoin="round"/>
</g>
</svg>
