<svg width="24" height="24" viewBox="0 0 24 24" fill="none" xmlns="http://www.w3.org/2000/svg">
<path fill-rule="evenodd" clip-rule="evenodd" d="M3.6 2.25C3.24196 2.25 2.89858 2.39223 2.64541 2.64541C2.39223 2.89858 2.25 3.24196 2.25 3.6V20.4C2.25 21.146 2.854 21.75 3.6 21.75H20.4C20.5773 21.75 20.7528 21.7151 20.9166 21.6472C21.0804 21.5794 21.2292 21.48 21.3546 21.3546C21.48 21.2292 21.5794 21.0804 21.6472 20.9166C21.7151 20.7528 21.75 20.5773 21.75 20.4V3.6C21.75 3.42272 21.7151 3.24717 21.6472 3.08338C21.5794 2.91959 21.48 2.77076 21.3546 2.64541C21.2292 2.52005 21.0804 2.42061 20.9166 2.35276C20.7528 2.28492 20.5773 2.25 20.4 2.25H3.6ZM9.879 8.421H14.829C14.9276 8.4206 15.0253 8.43973 15.1165 8.47728C15.2077 8.51483 15.2905 8.57006 15.3602 8.63978C15.4299 8.70951 15.4852 8.79234 15.5227 8.88352C15.5603 8.97469 15.5794 9.0724 15.579 9.171V14.121C15.579 14.3199 15.5 14.5107 15.3593 14.6513C15.2187 14.792 15.0279 14.871 14.829 14.871C14.6301 14.871 14.4393 14.792 14.2987 14.6513C14.158 14.5107 14.079 14.3199 14.079 14.121V10.982L9.702 15.359C9.63278 15.4306 9.55 15.4877 9.45847 15.527C9.36695 15.5662 9.26853 15.5869 9.16894 15.5877C9.06936 15.5885 8.97061 15.5695 8.87846 15.5317C8.7863 15.494 8.70259 15.4382 8.6322 15.3678C8.56182 15.2973 8.50617 15.2136 8.4685 15.1214C8.43083 15.0292 8.4119 14.9304 8.41281 14.8308C8.41373 14.7313 8.43446 14.6329 8.47381 14.5414C8.51316 14.4499 8.57034 14.3672 8.642 14.298L13.018 9.921H9.878C9.67909 9.921 9.48832 9.84198 9.34767 9.70133C9.20702 9.56068 9.128 9.36991 9.128 9.171C9.128 8.97209 9.20702 8.78132 9.34767 8.64067C9.48832 8.50002 9.68009 8.421 9.879 8.421Z" fill="black"/>
</svg>
