<svg width="24" height="24" viewBox="0 0 24 24" fill="none" xmlns="http://www.w3.org/2000/svg">
<path d="M9.75 4.75H11.75C13.076 4.75 14.348 5.277 15.286 6.214C16.223 7.152 16.75 8.424 16.75 9.75V16.75C16.75 17.28 16.539 17.789 16.164 18.164C15.789 18.539 15.28 18.75 14.75 18.75H2.75C2.22 18.75 1.711 18.539 1.336 18.164C0.961 17.789 0.75 17.28 0.75 16.75V9.75C0.75 8.424 1.277 7.152 2.214 6.214C3.152 5.277 4.424 4.75 5.75 4.75H7.75M9.75 4.75V2.75M7.75 4.75V2.75M9.75 4.75H7.75M5.75 14.75H5.76M11.75 14.75H11.76M3.75 18.75L2.75 20.75M13.75 18.75L14.75 20.75M0.75 11.75H16.75" stroke="#111111" stroke-width="1.5" stroke-linecap="round" stroke-linejoin="round"/>
</svg>
