<svg preserveAspectRatio="none" width="100%" height="100%" overflow="visible" style="display: block;" viewBox="0 0 21 21" fill="none" xmlns="http://www.w3.org/2000/svg">
<g id="Frame">
<path id="Vector" fill-rule="evenodd" clip-rule="evenodd" d="M8.414 3.18675C9.33975 1.57762 11.6602 1.57762 12.586 3.18675L19.6236 15.4263C20.5459 17.0301 19.3874 19.0313 17.5376 19.0313H3.46237C1.61175 19.0313 0.454125 17.0301 1.37637 15.4263L8.414 3.18675ZM10.5 7.21875C10.674 7.21875 10.841 7.28789 10.964 7.41096C11.0871 7.53403 11.1562 7.70095 11.1562 7.875V11.375C11.1562 11.549 11.0871 11.716 10.964 11.839C10.841 11.9621 10.674 12.0313 10.5 12.0313C10.326 12.0313 10.159 11.9621 10.036 11.839C9.91289 11.716 9.84375 11.549 9.84375 11.375V7.875C9.84375 7.70095 9.91289 7.53403 10.036 7.41096C10.159 7.28789 10.326 7.21875 10.5 7.21875ZM10.997 15.3125C11.1096 15.1826 11.1667 15.0136 11.1561 14.842C11.1454 14.6704 11.0678 14.5098 10.94 14.3948C10.8121 14.2798 10.6443 14.2196 10.4725 14.2271C10.3007 14.2346 10.1387 14.3092 10.0214 14.4349L10.0126 14.4445C9.90039 14.5744 9.84353 14.7431 9.85423 14.9144C9.86493 15.0858 9.94234 15.2461 10.0699 15.361C10.1974 15.4759 10.3649 15.5363 10.5364 15.5292C10.7079 15.5221 10.8698 15.4481 10.9874 15.323L10.997 15.3125Z" fill="var(--fill-0, white)"/>
</g>
</svg>
