<svg xmlns="http://www.w3.org/2000/svg" viewBox="0 0 300.865 242" fill="none" aria-hidden="true">
<path d="M233.591 122.402C224.247 124.893 215.215 124.893 206.494 122.402C197.773 119.287 189.987 114.927 183.135 109.32C176.906 103.091 171.611 96.2394 167.251 88.7645C163.514 80.6667 161.645 72.5689 161.645 64.471C161.645 48.2754 167.562 33.6371 179.398 20.556C191.856 6.852 207.74 0 227.05 0C250.721 0 268.785 8.72072 281.243 26.1622C294.324 42.9807 300.865 64.1596 300.865 89.6988C300.865 124.582 291.521 155.727 272.834 183.135C254.147 210.543 226.427 230.165 189.676 242L170.988 216.772C194.036 208.051 211.789 196.216 224.247 181.266C236.705 166.317 242.934 149.187 242.934 129.876C242.934 122.402 239.82 119.91 233.591 122.402ZM71.9459 122.402C62.6023 124.893 53.5701 124.893 44.8494 122.402C36.1287 119.287 28.3423 114.927 21.4903 109.32C15.2613 103.091 9.96654 96.2394 5.60618 88.7645C1.86873 80.6667 0 72.5689 0 64.471C0 48.2754 5.91763 33.6371 17.7529 20.556C30.2111 6.852 46.0952 0 65.4054 0C89.0759 0 107.14 8.72072 119.598 26.1622C132.68 42.9807 139.22 64.1596 139.22 89.6988C139.22 124.582 129.876 155.727 111.189 183.135C92.5019 210.543 64.7825 230.165 28.0309 242L9.34363 216.772C32.3913 208.051 50.1441 196.216 62.6023 181.266C75.0605 166.317 81.2896 149.187 81.2896 129.876C81.2896 122.402 78.175 119.91 71.9459 122.402Z" fill="#58BDC2"/>
</svg>
