<svg xmlns="http://www.w3.org/2000/svg" viewBox="0 0 564 564" fill="none" aria-hidden="true">
<line x1="537.00" y1="282.00" x2="563.00" y2="282.00" stroke="#58BDC2" stroke-width="1.35" stroke-linecap="butt"/>
<line x1="536.94" y1="287.72" x2="562.93" y2="288.31" stroke="#58BDC2" stroke-width="1.35" stroke-linecap="butt"/>
<line x1="536.74" y1="293.44" x2="562.72" y2="294.61" stroke="#58BDC2" stroke-width="1.35" stroke-linecap="butt"/>
<line x1="536.42" y1="299.15" x2="562.36" y2="300.90" stroke="#58BDC2" stroke-width="1.35" stroke-linecap="butt"/>
<line x1="535.97" y1="304.86" x2="561.87" y2="307.19" stroke="#58BDC2" stroke-width="1.35" stroke-linecap="butt"/>
<line x1="535.40" y1="310.55" x2="561.23" y2="313.46" stroke="#58BDC2" stroke-width="1.35" stroke-linecap="butt"/>
<line x1="534.69" y1="316.23" x2="560.46" y2="319.72" stroke="#58BDC2" stroke-width="1.35" stroke-linecap="butt"/>
<line x1="533.86" y1="321.89" x2="559.54" y2="325.96" stroke="#58BDC2" stroke-width="1.35" stroke-linecap="butt"/>
<line x1="532.90" y1="327.53" x2="558.48" y2="332.17" stroke="#58BDC2" stroke-width="1.35" stroke-linecap="butt"/>
<line x1="531.82" y1="333.15" x2="557.29" y2="338.37" stroke="#58BDC2" stroke-width="1.35" stroke-linecap="butt"/>
<line x1="530.61" y1="338.74" x2="555.95" y2="344.53" stroke="#58BDC2" stroke-width="1.35" stroke-linecap="butt"/>
<line x1="529.27" y1="344.31" x2="554.48" y2="350.66" stroke="#58BDC2" stroke-width="1.35" stroke-linecap="butt"/>
<line x1="527.81" y1="349.84" x2="552.87" y2="356.76" stroke="#58BDC2" stroke-width="1.35" stroke-linecap="butt"/>
<line x1="526.23" y1="355.34" x2="551.13" y2="362.82" stroke="#58BDC2" stroke-width="1.35" stroke-linecap="butt"/>
<line x1="524.52" y1="360.80" x2="549.25" y2="368.83" stroke="#58BDC2" stroke-width="1.35" stroke-linecap="butt"/>
<line x1="522.69" y1="366.22" x2="547.23" y2="374.81" stroke="#58BDC2" stroke-width="1.35" stroke-linecap="butt"/>
<line x1="520.74" y1="371.60" x2="545.08" y2="380.74" stroke="#58BDC2" stroke-width="1.35" stroke-linecap="butt"/>
<line x1="518.67" y1="376.93" x2="542.80" y2="386.61" stroke="#58BDC2" stroke-width="1.35" stroke-linecap="butt"/>
<line x1="516.48" y1="382.22" x2="540.39" y2="392.44" stroke="#58BDC2" stroke-width="1.35" stroke-linecap="butt"/>
<line x1="514.17" y1="387.46" x2="537.84" y2="398.21" stroke="#58BDC2" stroke-width="1.35" stroke-linecap="butt"/>
<line x1="511.75" y1="392.64" x2="535.17" y2="403.92" stroke="#58BDC2" stroke-width="1.35" stroke-linecap="butt"/>
<line x1="509.21" y1="397.77" x2="532.37" y2="409.57" stroke="#58BDC2" stroke-width="1.35" stroke-linecap="butt"/>
<line x1="506.55" y1="402.84" x2="529.45" y2="415.16" stroke="#58BDC2" stroke-width="1.35" stroke-linecap="butt"/>
<line x1="503.78" y1="407.84" x2="526.40" y2="420.68" stroke="#58BDC2" stroke-width="1.35" stroke-linecap="butt"/>
<line x1="500.90" y1="412.79" x2="523.22" y2="426.12" stroke="#58BDC2" stroke-width="1.35" stroke-linecap="butt"/>
<line x1="497.91" y1="417.67" x2="519.93" y2="431.50" stroke="#58BDC2" stroke-width="1.35" stroke-linecap="butt"/>
<line x1="494.82" y1="422.48" x2="516.52" y2="436.80" stroke="#58BDC2" stroke-width="1.35" stroke-linecap="butt"/>
<line x1="491.61" y1="427.22" x2="512.98" y2="442.03" stroke="#58BDC2" stroke-width="1.35" stroke-linecap="butt"/>
<line x1="488.30" y1="431.89" x2="509.33" y2="447.17" stroke="#58BDC2" stroke-width="1.35" stroke-linecap="butt"/>
<line x1="484.88" y1="436.48" x2="505.57" y2="452.23" stroke="#58BDC2" stroke-width="1.35" stroke-linecap="butt"/>
<line x1="481.37" y1="440.99" x2="501.69" y2="457.20" stroke="#58BDC2" stroke-width="1.35" stroke-linecap="butt"/>
<line x1="477.75" y1="445.42" x2="497.71" y2="462.09" stroke="#58BDC2" stroke-width="1.35" stroke-linecap="butt"/>
<line x1="474.03" y1="449.77" x2="493.61" y2="466.88" stroke="#58BDC2" stroke-width="1.35" stroke-linecap="butt"/>
<line x1="470.22" y1="454.04" x2="489.41" y2="471.58" stroke="#58BDC2" stroke-width="1.35" stroke-linecap="butt"/>
<line x1="466.31" y1="458.22" x2="485.11" y2="476.19" stroke="#58BDC2" stroke-width="1.35" stroke-linecap="butt"/>
<line x1="462.31" y1="462.31" x2="480.70" y2="480.70" stroke="#58BDC2" stroke-width="1.35" stroke-linecap="butt"/>
<line x1="458.22" y1="466.31" x2="476.19" y2="485.11" stroke="#58BDC2" stroke-width="1.35" stroke-linecap="butt"/>
<line x1="454.04" y1="470.22" x2="471.58" y2="489.41" stroke="#58BDC2" stroke-width="1.35" stroke-linecap="butt"/>
<line x1="449.77" y1="474.03" x2="466.88" y2="493.61" stroke="#58BDC2" stroke-width="1.35" stroke-linecap="butt"/>
<line x1="445.42" y1="477.75" x2="462.09" y2="497.71" stroke="#58BDC2" stroke-width="1.35" stroke-linecap="butt"/>
<line x1="440.99" y1="481.37" x2="457.20" y2="501.69" stroke="#58BDC2" stroke-width="1.35" stroke-linecap="butt"/>
<line x1="436.48" y1="484.88" x2="452.23" y2="505.57" stroke="#58BDC2" stroke-width="1.35" stroke-linecap="butt"/>
<line x1="431.89" y1="488.30" x2="447.17" y2="509.33" stroke="#58BDC2" stroke-width="1.35" stroke-linecap="butt"/>
<line x1="427.22" y1="491.61" x2="442.03" y2="512.98" stroke="#58BDC2" stroke-width="1.35" stroke-linecap="butt"/>
<line x1="422.48" y1="494.82" x2="436.80" y2="516.52" stroke="#58BDC2" stroke-width="1.35" stroke-linecap="butt"/>
<line x1="417.67" y1="497.91" x2="431.50" y2="519.93" stroke="#58BDC2" stroke-width="1.35" stroke-linecap="butt"/>
<line x1="412.79" y1="500.90" x2="426.12" y2="523.22" stroke="#58BDC2" stroke-width="1.35" stroke-linecap="butt"/>
<line x1="407.84" y1="503.78" x2="420.68" y2="526.40" stroke="#58BDC2" stroke-width="1.35" stroke-linecap="butt"/>
<line x1="402.84" y1="506.55" x2="415.16" y2="529.45" stroke="#58BDC2" stroke-width="1.35" stroke-linecap="butt"/>
<line x1="397.77" y1="509.21" x2="409.57" y2="532.37" stroke="#58BDC2" stroke-width="1.35" stroke-linecap="butt"/>
<line x1="392.64" y1="511.75" x2="403.92" y2="535.17" stroke="#58BDC2" stroke-width="1.35" stroke-linecap="butt"/>
<line x1="387.46" y1="514.17" x2="398.21" y2="537.84" stroke="#58BDC2" stroke-width="1.35" stroke-linecap="butt"/>
<line x1="382.22" y1="516.48" x2="392.44" y2="540.39" stroke="#58BDC2" stroke-width="1.35" stroke-linecap="butt"/>
<line x1="376.93" y1="518.67" x2="386.61" y2="542.80" stroke="#58BDC2" stroke-width="1.35" stroke-linecap="butt"/>
<line x1="371.60" y1="520.74" x2="380.74" y2="545.08" stroke="#58BDC2" stroke-width="1.35" stroke-linecap="butt"/>
<line x1="366.22" y1="522.69" x2="374.81" y2="547.23" stroke="#58BDC2" stroke-width="1.35" stroke-linecap="butt"/>
<line x1="360.80" y1="524.52" x2="368.83" y2="549.25" stroke="#58BDC2" stroke-width="1.35" stroke-linecap="butt"/>
<line x1="355.34" y1="526.23" x2="362.82" y2="551.13" stroke="#58BDC2" stroke-width="1.35" stroke-linecap="butt"/>
<line x1="349.84" y1="527.81" x2="356.76" y2="552.87" stroke="#58BDC2" stroke-width="1.35" stroke-linecap="butt"/>
<line x1="344.31" y1="529.27" x2="350.66" y2="554.48" stroke="#58BDC2" stroke-width="1.35" stroke-linecap="butt"/>
<line x1="338.74" y1="530.61" x2="344.53" y2="555.95" stroke="#58BDC2" stroke-width="1.35" stroke-linecap="butt"/>
<line x1="333.15" y1="531.82" x2="338.37" y2="557.29" stroke="#58BDC2" stroke-width="1.35" stroke-linecap="butt"/>
<line x1="327.53" y1="532.90" x2="332.17" y2="558.48" stroke="#58BDC2" stroke-width="1.35" stroke-linecap="butt"/>
<line x1="321.89" y1="533.86" x2="325.96" y2="559.54" stroke="#58BDC2" stroke-width="1.35" stroke-linecap="butt"/>
<line x1="316.23" y1="534.69" x2="319.72" y2="560.46" stroke="#58BDC2" stroke-width="1.35" stroke-linecap="butt"/>
<line x1="310.55" y1="535.40" x2="313.46" y2="561.23" stroke="#58BDC2" stroke-width="1.35" stroke-linecap="butt"/>
<line x1="304.86" y1="535.97" x2="307.19" y2="561.87" stroke="#58BDC2" stroke-width="1.35" stroke-linecap="butt"/>
<line x1="299.15" y1="536.42" x2="300.90" y2="562.36" stroke="#58BDC2" stroke-width="1.35" stroke-linecap="butt"/>
<line x1="293.44" y1="536.74" x2="294.61" y2="562.72" stroke="#58BDC2" stroke-width="1.35" stroke-linecap="butt"/>
<line x1="287.72" y1="536.94" x2="288.31" y2="562.93" stroke="#58BDC2" stroke-width="1.35" stroke-linecap="butt"/>
<line x1="282.00" y1="537.00" x2="282.00" y2="563.00" stroke="#58BDC2" stroke-width="1.35" stroke-linecap="butt"/>
<line x1="276.28" y1="536.94" x2="275.69" y2="562.93" stroke="#58BDC2" stroke-width="1.35" stroke-linecap="butt"/>
<line x1="270.56" y1="536.74" x2="269.39" y2="562.72" stroke="#58BDC2" stroke-width="1.35" stroke-linecap="butt"/>
<line x1="264.85" y1="536.42" x2="263.10" y2="562.36" stroke="#58BDC2" stroke-width="1.35" stroke-linecap="butt"/>
<line x1="259.14" y1="535.97" x2="256.81" y2="561.87" stroke="#58BDC2" stroke-width="1.35" stroke-linecap="butt"/>
<line x1="253.45" y1="535.40" x2="250.54" y2="561.23" stroke="#58BDC2" stroke-width="1.35" stroke-linecap="butt"/>
<line x1="247.77" y1="534.69" x2="244.28" y2="560.46" stroke="#58BDC2" stroke-width="1.35" stroke-linecap="butt"/>
<line x1="242.11" y1="533.86" x2="238.04" y2="559.54" stroke="#58BDC2" stroke-width="1.35" stroke-linecap="butt"/>
<line x1="236.47" y1="532.90" x2="231.83" y2="558.48" stroke="#58BDC2" stroke-width="1.35" stroke-linecap="butt"/>
<line x1="230.85" y1="531.82" x2="225.63" y2="557.29" stroke="#58BDC2" stroke-width="1.35" stroke-linecap="butt"/>
<line x1="225.26" y1="530.61" x2="219.47" y2="555.95" stroke="#58BDC2" stroke-width="1.35" stroke-linecap="butt"/>
<line x1="219.69" y1="529.27" x2="213.34" y2="554.48" stroke="#58BDC2" stroke-width="1.35" stroke-linecap="butt"/>
<line x1="214.16" y1="527.81" x2="207.24" y2="552.87" stroke="#58BDC2" stroke-width="1.35" stroke-linecap="butt"/>
<line x1="208.66" y1="526.23" x2="201.18" y2="551.13" stroke="#58BDC2" stroke-width="1.35" stroke-linecap="butt"/>
<line x1="203.20" y1="524.52" x2="195.17" y2="549.25" stroke="#58BDC2" stroke-width="1.35" stroke-linecap="butt"/>
<line x1="197.78" y1="522.69" x2="189.19" y2="547.23" stroke="#58BDC2" stroke-width="1.35" stroke-linecap="butt"/>
<line x1="192.40" y1="520.74" x2="183.26" y2="545.08" stroke="#58BDC2" stroke-width="1.35" stroke-linecap="butt"/>
<line x1="187.07" y1="518.67" x2="177.39" y2="542.80" stroke="#58BDC2" stroke-width="1.35" stroke-linecap="butt"/>
<line x1="181.78" y1="516.48" x2="171.56" y2="540.39" stroke="#58BDC2" stroke-width="1.35" stroke-linecap="butt"/>
<line x1="176.54" y1="514.17" x2="165.79" y2="537.84" stroke="#58BDC2" stroke-width="1.35" stroke-linecap="butt"/>
<line x1="171.36" y1="511.75" x2="160.08" y2="535.17" stroke="#58BDC2" stroke-width="1.35" stroke-linecap="butt"/>
<line x1="166.23" y1="509.21" x2="154.43" y2="532.37" stroke="#58BDC2" stroke-width="1.35" stroke-linecap="butt"/>
<line x1="161.16" y1="506.55" x2="148.84" y2="529.45" stroke="#58BDC2" stroke-width="1.35" stroke-linecap="butt"/>
<line x1="156.16" y1="503.78" x2="143.32" y2="526.40" stroke="#58BDC2" stroke-width="1.35" stroke-linecap="butt"/>
<line x1="151.21" y1="500.90" x2="137.88" y2="523.22" stroke="#58BDC2" stroke-width="1.35" stroke-linecap="butt"/>
<line x1="146.33" y1="497.91" x2="132.50" y2="519.93" stroke="#58BDC2" stroke-width="1.35" stroke-linecap="butt"/>
<line x1="141.52" y1="494.82" x2="127.20" y2="516.52" stroke="#58BDC2" stroke-width="1.35" stroke-linecap="butt"/>
<line x1="136.78" y1="491.61" x2="121.97" y2="512.98" stroke="#58BDC2" stroke-width="1.35" stroke-linecap="butt"/>
<line x1="132.11" y1="488.30" x2="116.83" y2="509.33" stroke="#58BDC2" stroke-width="1.35" stroke-linecap="butt"/>
<line x1="127.52" y1="484.88" x2="111.77" y2="505.57" stroke="#58BDC2" stroke-width="1.35" stroke-linecap="butt"/>
<line x1="123.01" y1="481.37" x2="106.80" y2="501.69" stroke="#58BDC2" stroke-width="1.35" stroke-linecap="butt"/>
<line x1="118.58" y1="477.75" x2="101.91" y2="497.71" stroke="#58BDC2" stroke-width="1.35" stroke-linecap="butt"/>
<line x1="114.23" y1="474.03" x2="97.12" y2="493.61" stroke="#58BDC2" stroke-width="1.35" stroke-linecap="butt"/>
<line x1="109.96" y1="470.22" x2="92.42" y2="489.41" stroke="#58BDC2" stroke-width="1.35" stroke-linecap="butt"/>
<line x1="105.78" y1="466.31" x2="87.81" y2="485.11" stroke="#58BDC2" stroke-width="1.35" stroke-linecap="butt"/>
<line x1="101.69" y1="462.31" x2="83.30" y2="480.70" stroke="#58BDC2" stroke-width="1.35" stroke-linecap="butt"/>
<line x1="97.69" y1="458.22" x2="78.89" y2="476.19" stroke="#58BDC2" stroke-width="1.35" stroke-linecap="butt"/>
<line x1="93.78" y1="454.04" x2="74.59" y2="471.58" stroke="#58BDC2" stroke-width="1.35" stroke-linecap="butt"/>
<line x1="89.97" y1="449.77" x2="70.39" y2="466.88" stroke="#58BDC2" stroke-width="1.35" stroke-linecap="butt"/>
<line x1="86.25" y1="445.42" x2="66.29" y2="462.09" stroke="#58BDC2" stroke-width="1.35" stroke-linecap="butt"/>
<line x1="82.63" y1="440.99" x2="62.31" y2="457.20" stroke="#58BDC2" stroke-width="1.35" stroke-linecap="butt"/>
<line x1="79.12" y1="436.48" x2="58.43" y2="452.23" stroke="#58BDC2" stroke-width="1.35" stroke-linecap="butt"/>
<line x1="75.70" y1="431.89" x2="54.67" y2="447.17" stroke="#58BDC2" stroke-width="1.35" stroke-linecap="butt"/>
<line x1="72.39" y1="427.22" x2="51.02" y2="442.03" stroke="#58BDC2" stroke-width="1.35" stroke-linecap="butt"/>
<line x1="69.18" y1="422.48" x2="47.48" y2="436.80" stroke="#58BDC2" stroke-width="1.35" stroke-linecap="butt"/>
<line x1="66.09" y1="417.67" x2="44.07" y2="431.50" stroke="#58BDC2" stroke-width="1.35" stroke-linecap="butt"/>
<line x1="63.10" y1="412.79" x2="40.78" y2="426.12" stroke="#58BDC2" stroke-width="1.35" stroke-linecap="butt"/>
<line x1="60.22" y1="407.84" x2="37.60" y2="420.68" stroke="#58BDC2" stroke-width="1.35" stroke-linecap="butt"/>
<line x1="57.45" y1="402.84" x2="34.55" y2="415.16" stroke="#58BDC2" stroke-width="1.35" stroke-linecap="butt"/>
<line x1="54.79" y1="397.77" x2="31.63" y2="409.57" stroke="#58BDC2" stroke-width="1.35" stroke-linecap="butt"/>
<line x1="52.25" y1="392.64" x2="28.83" y2="403.92" stroke="#58BDC2" stroke-width="1.35" stroke-linecap="butt"/>
<line x1="49.83" y1="387.46" x2="26.16" y2="398.21" stroke="#58BDC2" stroke-width="1.35" stroke-linecap="butt"/>
<line x1="47.52" y1="382.22" x2="23.61" y2="392.44" stroke="#58BDC2" stroke-width="1.35" stroke-linecap="butt"/>
<line x1="45.33" y1="376.93" x2="21.20" y2="386.61" stroke="#58BDC2" stroke-width="1.35" stroke-linecap="butt"/>
<line x1="43.26" y1="371.60" x2="18.92" y2="380.74" stroke="#58BDC2" stroke-width="1.35" stroke-linecap="butt"/>
<line x1="41.31" y1="366.22" x2="16.77" y2="374.81" stroke="#58BDC2" stroke-width="1.35" stroke-linecap="butt"/>
<line x1="39.48" y1="360.80" x2="14.75" y2="368.83" stroke="#58BDC2" stroke-width="1.35" stroke-linecap="butt"/>
<line x1="37.77" y1="355.34" x2="12.87" y2="362.82" stroke="#58BDC2" stroke-width="1.35" stroke-linecap="butt"/>
<line x1="36.19" y1="349.84" x2="11.13" y2="356.76" stroke="#58BDC2" stroke-width="1.35" stroke-linecap="butt"/>
<line x1="34.73" y1="344.31" x2="9.52" y2="350.66" stroke="#58BDC2" stroke-width="1.35" stroke-linecap="butt"/>
<line x1="33.39" y1="338.74" x2="8.05" y2="344.53" stroke="#58BDC2" stroke-width="1.35" stroke-linecap="butt"/>
<line x1="32.18" y1="333.15" x2="6.71" y2="338.37" stroke="#58BDC2" stroke-width="1.35" stroke-linecap="butt"/>
<line x1="31.10" y1="327.53" x2="5.52" y2="332.17" stroke="#58BDC2" stroke-width="1.35" stroke-linecap="butt"/>
<line x1="30.14" y1="321.89" x2="4.46" y2="325.96" stroke="#58BDC2" stroke-width="1.35" stroke-linecap="butt"/>
<line x1="29.31" y1="316.23" x2="3.54" y2="319.72" stroke="#58BDC2" stroke-width="1.35" stroke-linecap="butt"/>
<line x1="28.60" y1="310.55" x2="2.77" y2="313.46" stroke="#58BDC2" stroke-width="1.35" stroke-linecap="butt"/>
<line x1="28.03" y1="304.86" x2="2.13" y2="307.19" stroke="#58BDC2" stroke-width="1.35" stroke-linecap="butt"/>
<line x1="27.58" y1="299.15" x2="1.64" y2="300.90" stroke="#58BDC2" stroke-width="1.35" stroke-linecap="butt"/>
<line x1="27.26" y1="293.44" x2="1.28" y2="294.61" stroke="#58BDC2" stroke-width="1.35" stroke-linecap="butt"/>
<line x1="27.06" y1="287.72" x2="1.07" y2="288.31" stroke="#58BDC2" stroke-width="1.35" stroke-linecap="butt"/>
<line x1="27.00" y1="282.00" x2="1.00" y2="282.00" stroke="#58BDC2" stroke-width="1.35" stroke-linecap="butt"/>
<line x1="27.06" y1="276.28" x2="1.07" y2="275.69" stroke="#58BDC2" stroke-width="1.35" stroke-linecap="butt"/>
<line x1="27.26" y1="270.56" x2="1.28" y2="269.39" stroke="#58BDC2" stroke-width="1.35" stroke-linecap="butt"/>
<line x1="27.58" y1="264.85" x2="1.64" y2="263.10" stroke="#58BDC2" stroke-width="1.35" stroke-linecap="butt"/>
<line x1="28.03" y1="259.14" x2="2.13" y2="256.81" stroke="#58BDC2" stroke-width="1.35" stroke-linecap="butt"/>
<line x1="28.60" y1="253.45" x2="2.77" y2="250.54" stroke="#58BDC2" stroke-width="1.35" stroke-linecap="butt"/>
<line x1="29.31" y1="247.77" x2="3.54" y2="244.28" stroke="#58BDC2" stroke-width="1.35" stroke-linecap="butt"/>
<line x1="30.14" y1="242.11" x2="4.46" y2="238.04" stroke="#58BDC2" stroke-width="1.35" stroke-linecap="butt"/>
<line x1="31.10" y1="236.47" x2="5.52" y2="231.83" stroke="#58BDC2" stroke-width="1.35" stroke-linecap="butt"/>
<line x1="32.18" y1="230.85" x2="6.71" y2="225.63" stroke="#58BDC2" stroke-width="1.35" stroke-linecap="butt"/>
<line x1="33.39" y1="225.26" x2="8.05" y2="219.47" stroke="#58BDC2" stroke-width="1.35" stroke-linecap="butt"/>
<line x1="34.73" y1="219.69" x2="9.52" y2="213.34" stroke="#58BDC2" stroke-width="1.35" stroke-linecap="butt"/>
<line x1="36.19" y1="214.16" x2="11.13" y2="207.24" stroke="#58BDC2" stroke-width="1.35" stroke-linecap="butt"/>
<line x1="37.77" y1="208.66" x2="12.87" y2="201.18" stroke="#58BDC2" stroke-width="1.35" stroke-linecap="butt"/>
<line x1="39.48" y1="203.20" x2="14.75" y2="195.17" stroke="#58BDC2" stroke-width="1.35" stroke-linecap="butt"/>
<line x1="41.31" y1="197.78" x2="16.77" y2="189.19" stroke="#58BDC2" stroke-width="1.35" stroke-linecap="butt"/>
<line x1="43.26" y1="192.40" x2="18.92" y2="183.26" stroke="#58BDC2" stroke-width="1.35" stroke-linecap="butt"/>
<line x1="45.33" y1="187.07" x2="21.20" y2="177.39" stroke="#58BDC2" stroke-width="1.35" stroke-linecap="butt"/>
<line x1="47.52" y1="181.78" x2="23.61" y2="171.56" stroke="#58BDC2" stroke-width="1.35" stroke-linecap="butt"/>
<line x1="49.83" y1="176.54" x2="26.16" y2="165.79" stroke="#58BDC2" stroke-width="1.35" stroke-linecap="butt"/>
<line x1="52.25" y1="171.36" x2="28.83" y2="160.08" stroke="#58BDC2" stroke-width="1.35" stroke-linecap="butt"/>
<line x1="54.79" y1="166.23" x2="31.63" y2="154.43" stroke="#58BDC2" stroke-width="1.35" stroke-linecap="butt"/>
<line x1="57.45" y1="161.16" x2="34.55" y2="148.84" stroke="#58BDC2" stroke-width="1.35" stroke-linecap="butt"/>
<line x1="60.22" y1="156.16" x2="37.60" y2="143.32" stroke="#58BDC2" stroke-width="1.35" stroke-linecap="butt"/>
<line x1="63.10" y1="151.21" x2="40.78" y2="137.88" stroke="#58BDC2" stroke-width="1.35" stroke-linecap="butt"/>
<line x1="66.09" y1="146.33" x2="44.07" y2="132.50" stroke="#58BDC2" stroke-width="1.35" stroke-linecap="butt"/>
<line x1="69.18" y1="141.52" x2="47.48" y2="127.20" stroke="#58BDC2" stroke-width="1.35" stroke-linecap="butt"/>
<line x1="72.39" y1="136.78" x2="51.02" y2="121.97" stroke="#58BDC2" stroke-width="1.35" stroke-linecap="butt"/>
<line x1="75.70" y1="132.11" x2="54.67" y2="116.83" stroke="#58BDC2" stroke-width="1.35" stroke-linecap="butt"/>
<line x1="79.12" y1="127.52" x2="58.43" y2="111.77" stroke="#58BDC2" stroke-width="1.35" stroke-linecap="butt"/>
<line x1="82.63" y1="123.01" x2="62.31" y2="106.80" stroke="#58BDC2" stroke-width="1.35" stroke-linecap="butt"/>
<line x1="86.25" y1="118.58" x2="66.29" y2="101.91" stroke="#58BDC2" stroke-width="1.35" stroke-linecap="butt"/>
<line x1="89.97" y1="114.23" x2="70.39" y2="97.12" stroke="#58BDC2" stroke-width="1.35" stroke-linecap="butt"/>
<line x1="93.78" y1="109.96" x2="74.59" y2="92.42" stroke="#58BDC2" stroke-width="1.35" stroke-linecap="butt"/>
<line x1="97.69" y1="105.78" x2="78.89" y2="87.81" stroke="#58BDC2" stroke-width="1.35" stroke-linecap="butt"/>
<line x1="101.69" y1="101.69" x2="83.30" y2="83.30" stroke="#58BDC2" stroke-width="1.35" stroke-linecap="butt"/>
<line x1="105.78" y1="97.69" x2="87.81" y2="78.89" stroke="#58BDC2" stroke-width="1.35" stroke-linecap="butt"/>
<line x1="109.96" y1="93.78" x2="92.42" y2="74.59" stroke="#58BDC2" stroke-width="1.35" stroke-linecap="butt"/>
<line x1="114.23" y1="89.97" x2="97.12" y2="70.39" stroke="#58BDC2" stroke-width="1.35" stroke-linecap="butt"/>
<line x1="118.58" y1="86.25" x2="101.91" y2="66.29" stroke="#58BDC2" stroke-width="1.35" stroke-linecap="butt"/>
<line x1="123.01" y1="82.63" x2="106.80" y2="62.31" stroke="#58BDC2" stroke-width="1.35" stroke-linecap="butt"/>
<line x1="127.52" y1="79.12" x2="111.77" y2="58.43" stroke="#58BDC2" stroke-width="1.35" stroke-linecap="butt"/>
<line x1="132.11" y1="75.70" x2="116.83" y2="54.67" stroke="#58BDC2" stroke-width="1.35" stroke-linecap="butt"/>
<line x1="136.78" y1="72.39" x2="121.97" y2="51.02" stroke="#58BDC2" stroke-width="1.35" stroke-linecap="butt"/>
<line x1="141.52" y1="69.18" x2="127.20" y2="47.48" stroke="#58BDC2" stroke-width="1.35" stroke-linecap="butt"/>
<line x1="146.33" y1="66.09" x2="132.50" y2="44.07" stroke="#58BDC2" stroke-width="1.35" stroke-linecap="butt"/>
<line x1="151.21" y1="63.10" x2="137.88" y2="40.78" stroke="#58BDC2" stroke-width="1.35" stroke-linecap="butt"/>
<line x1="156.16" y1="60.22" x2="143.32" y2="37.60" stroke="#58BDC2" stroke-width="1.35" stroke-linecap="butt"/>
<line x1="161.16" y1="57.45" x2="148.84" y2="34.55" stroke="#58BDC2" stroke-width="1.35" stroke-linecap="butt"/>
<line x1="166.23" y1="54.79" x2="154.43" y2="31.63" stroke="#58BDC2" stroke-width="1.35" stroke-linecap="butt"/>
<line x1="171.36" y1="52.25" x2="160.08" y2="28.83" stroke="#58BDC2" stroke-width="1.35" stroke-linecap="butt"/>
<line x1="176.54" y1="49.83" x2="165.79" y2="26.16" stroke="#58BDC2" stroke-width="1.35" stroke-linecap="butt"/>
<line x1="181.78" y1="47.52" x2="171.56" y2="23.61" stroke="#58BDC2" stroke-width="1.35" stroke-linecap="butt"/>
<line x1="187.07" y1="45.33" x2="177.39" y2="21.20" stroke="#58BDC2" stroke-width="1.35" stroke-linecap="butt"/>
<line x1="192.40" y1="43.26" x2="183.26" y2="18.92" stroke="#58BDC2" stroke-width="1.35" stroke-linecap="butt"/>
<line x1="197.78" y1="41.31" x2="189.19" y2="16.77" stroke="#58BDC2" stroke-width="1.35" stroke-linecap="butt"/>
<line x1="203.20" y1="39.48" x2="195.17" y2="14.75" stroke="#58BDC2" stroke-width="1.35" stroke-linecap="butt"/>
<line x1="208.66" y1="37.77" x2="201.18" y2="12.87" stroke="#58BDC2" stroke-width="1.35" stroke-linecap="butt"/>
<line x1="214.16" y1="36.19" x2="207.24" y2="11.13" stroke="#58BDC2" stroke-width="1.35" stroke-linecap="butt"/>
<line x1="219.69" y1="34.73" x2="213.34" y2="9.52" stroke="#58BDC2" stroke-width="1.35" stroke-linecap="butt"/>
<line x1="225.26" y1="33.39" x2="219.47" y2="8.05" stroke="#58BDC2" stroke-width="1.35" stroke-linecap="butt"/>
<line x1="230.85" y1="32.18" x2="225.63" y2="6.71" stroke="#58BDC2" stroke-width="1.35" stroke-linecap="butt"/>
<line x1="236.47" y1="31.10" x2="231.83" y2="5.52" stroke="#58BDC2" stroke-width="1.35" stroke-linecap="butt"/>
<line x1="242.11" y1="30.14" x2="238.04" y2="4.46" stroke="#58BDC2" stroke-width="1.35" stroke-linecap="butt"/>
<line x1="247.77" y1="29.31" x2="244.28" y2="3.54" stroke="#58BDC2" stroke-width="1.35" stroke-linecap="butt"/>
<line x1="253.45" y1="28.60" x2="250.54" y2="2.77" stroke="#58BDC2" stroke-width="1.35" stroke-linecap="butt"/>
<line x1="259.14" y1="28.03" x2="256.81" y2="2.13" stroke="#58BDC2" stroke-width="1.35" stroke-linecap="butt"/>
<line x1="264.85" y1="27.58" x2="263.10" y2="1.64" stroke="#58BDC2" stroke-width="1.35" stroke-linecap="butt"/>
<line x1="270.56" y1="27.26" x2="269.39" y2="1.28" stroke="#58BDC2" stroke-width="1.35" stroke-linecap="butt"/>
<line x1="276.28" y1="27.06" x2="275.69" y2="1.07" stroke="#58BDC2" stroke-width="1.35" stroke-linecap="butt"/>
<line x1="282.00" y1="27.00" x2="282.00" y2="1.00" stroke="#58BDC2" stroke-width="1.35" stroke-linecap="butt"/>
<line x1="287.72" y1="27.06" x2="288.31" y2="1.07" stroke="#58BDC2" stroke-width="1.35" stroke-linecap="butt"/>
<line x1="293.44" y1="27.26" x2="294.61" y2="1.28" stroke="#58BDC2" stroke-width="1.35" stroke-linecap="butt"/>
<line x1="299.15" y1="27.58" x2="300.90" y2="1.64" stroke="#58BDC2" stroke-width="1.35" stroke-linecap="butt"/>
<line x1="304.86" y1="28.03" x2="307.19" y2="2.13" stroke="#58BDC2" stroke-width="1.35" stroke-linecap="butt"/>
<line x1="310.55" y1="28.60" x2="313.46" y2="2.77" stroke="#58BDC2" stroke-width="1.35" stroke-linecap="butt"/>
<line x1="316.23" y1="29.31" x2="319.72" y2="3.54" stroke="#58BDC2" stroke-width="1.35" stroke-linecap="butt"/>
<line x1="321.89" y1="30.14" x2="325.96" y2="4.46" stroke="#58BDC2" stroke-width="1.35" stroke-linecap="butt"/>
<line x1="327.53" y1="31.10" x2="332.17" y2="5.52" stroke="#58BDC2" stroke-width="1.35" stroke-linecap="butt"/>
<line x1="333.15" y1="32.18" x2="338.37" y2="6.71" stroke="#58BDC2" stroke-width="1.35" stroke-linecap="butt"/>
<line x1="338.74" y1="33.39" x2="344.53" y2="8.05" stroke="#58BDC2" stroke-width="1.35" stroke-linecap="butt"/>
<line x1="344.31" y1="34.73" x2="350.66" y2="9.52" stroke="#58BDC2" stroke-width="1.35" stroke-linecap="butt"/>
<line x1="349.84" y1="36.19" x2="356.76" y2="11.13" stroke="#58BDC2" stroke-width="1.35" stroke-linecap="butt"/>
<line x1="355.34" y1="37.77" x2="362.82" y2="12.87" stroke="#58BDC2" stroke-width="1.35" stroke-linecap="butt"/>
<line x1="360.80" y1="39.48" x2="368.83" y2="14.75" stroke="#58BDC2" stroke-width="1.35" stroke-linecap="butt"/>
<line x1="366.22" y1="41.31" x2="374.81" y2="16.77" stroke="#58BDC2" stroke-width="1.35" stroke-linecap="butt"/>
<line x1="371.60" y1="43.26" x2="380.74" y2="18.92" stroke="#58BDC2" stroke-width="1.35" stroke-linecap="butt"/>
<line x1="376.93" y1="45.33" x2="386.61" y2="21.20" stroke="#58BDC2" stroke-width="1.35" stroke-linecap="butt"/>
<line x1="382.22" y1="47.52" x2="392.44" y2="23.61" stroke="#58BDC2" stroke-width="1.35" stroke-linecap="butt"/>
<line x1="387.46" y1="49.83" x2="398.21" y2="26.16" stroke="#58BDC2" stroke-width="1.35" stroke-linecap="butt"/>
<line x1="392.64" y1="52.25" x2="403.92" y2="28.83" stroke="#58BDC2" stroke-width="1.35" stroke-linecap="butt"/>
<line x1="397.77" y1="54.79" x2="409.57" y2="31.63" stroke="#58BDC2" stroke-width="1.35" stroke-linecap="butt"/>
<line x1="402.84" y1="57.45" x2="415.16" y2="34.55" stroke="#58BDC2" stroke-width="1.35" stroke-linecap="butt"/>
<line x1="407.84" y1="60.22" x2="420.68" y2="37.60" stroke="#58BDC2" stroke-width="1.35" stroke-linecap="butt"/>
<line x1="412.79" y1="63.10" x2="426.12" y2="40.78" stroke="#58BDC2" stroke-width="1.35" stroke-linecap="butt"/>
<line x1="417.67" y1="66.09" x2="431.50" y2="44.07" stroke="#58BDC2" stroke-width="1.35" stroke-linecap="butt"/>
<line x1="422.48" y1="69.18" x2="436.80" y2="47.48" stroke="#58BDC2" stroke-width="1.35" stroke-linecap="butt"/>
<line x1="427.22" y1="72.39" x2="442.03" y2="51.02" stroke="#58BDC2" stroke-width="1.35" stroke-linecap="butt"/>
<line x1="431.89" y1="75.70" x2="447.17" y2="54.67" stroke="#58BDC2" stroke-width="1.35" stroke-linecap="butt"/>
<line x1="436.48" y1="79.12" x2="452.23" y2="58.43" stroke="#58BDC2" stroke-width="1.35" stroke-linecap="butt"/>
<line x1="440.99" y1="82.63" x2="457.20" y2="62.31" stroke="#58BDC2" stroke-width="1.35" stroke-linecap="butt"/>
<line x1="445.42" y1="86.25" x2="462.09" y2="66.29" stroke="#58BDC2" stroke-width="1.35" stroke-linecap="butt"/>
<line x1="449.77" y1="89.97" x2="466.88" y2="70.39" stroke="#58BDC2" stroke-width="1.35" stroke-linecap="butt"/>
<line x1="454.04" y1="93.78" x2="471.58" y2="74.59" stroke="#58BDC2" stroke-width="1.35" stroke-linecap="butt"/>
<line x1="458.22" y1="97.69" x2="476.19" y2="78.89" stroke="#58BDC2" stroke-width="1.35" stroke-linecap="butt"/>
<line x1="462.31" y1="101.69" x2="480.70" y2="83.30" stroke="#58BDC2" stroke-width="1.35" stroke-linecap="butt"/>
<line x1="466.31" y1="105.78" x2="485.11" y2="87.81" stroke="#58BDC2" stroke-width="1.35" stroke-linecap="butt"/>
<line x1="470.22" y1="109.96" x2="489.41" y2="92.42" stroke="#58BDC2" stroke-width="1.35" stroke-linecap="butt"/>
<line x1="474.03" y1="114.23" x2="493.61" y2="97.12" stroke="#58BDC2" stroke-width="1.35" stroke-linecap="butt"/>
<line x1="477.75" y1="118.58" x2="497.71" y2="101.91" stroke="#58BDC2" stroke-width="1.35" stroke-linecap="butt"/>
<line x1="481.37" y1="123.01" x2="501.69" y2="106.80" stroke="#58BDC2" stroke-width="1.35" stroke-linecap="butt"/>
<line x1="484.88" y1="127.52" x2="505.57" y2="111.77" stroke="#58BDC2" stroke-width="1.35" stroke-linecap="butt"/>
<line x1="488.30" y1="132.11" x2="509.33" y2="116.83" stroke="#58BDC2" stroke-width="1.35" stroke-linecap="butt"/>
<line x1="491.61" y1="136.78" x2="512.98" y2="121.97" stroke="#58BDC2" stroke-width="1.35" stroke-linecap="butt"/>
<line x1="494.82" y1="141.52" x2="516.52" y2="127.20" stroke="#58BDC2" stroke-width="1.35" stroke-linecap="butt"/>
<line x1="497.91" y1="146.33" x2="519.93" y2="132.50" stroke="#58BDC2" stroke-width="1.35" stroke-linecap="butt"/>
<line x1="500.90" y1="151.21" x2="523.22" y2="137.88" stroke="#58BDC2" stroke-width="1.35" stroke-linecap="butt"/>
<line x1="503.78" y1="156.16" x2="526.40" y2="143.32" stroke="#58BDC2" stroke-width="1.35" stroke-linecap="butt"/>
<line x1="506.55" y1="161.16" x2="529.45" y2="148.84" stroke="#58BDC2" stroke-width="1.35" stroke-linecap="butt"/>
<line x1="509.21" y1="166.23" x2="532.37" y2="154.43" stroke="#58BDC2" stroke-width="1.35" stroke-linecap="butt"/>
<line x1="511.75" y1="171.36" x2="535.17" y2="160.08" stroke="#58BDC2" stroke-width="1.35" stroke-linecap="butt"/>
<line x1="514.17" y1="176.54" x2="537.84" y2="165.79" stroke="#58BDC2" stroke-width="1.35" stroke-linecap="butt"/>
<line x1="516.48" y1="181.78" x2="540.39" y2="171.56" stroke="#58BDC2" stroke-width="1.35" stroke-linecap="butt"/>
<line x1="518.67" y1="187.07" x2="542.80" y2="177.39" stroke="#58BDC2" stroke-width="1.35" stroke-linecap="butt"/>
<line x1="520.74" y1="192.40" x2="545.08" y2="183.26" stroke="#58BDC2" stroke-width="1.35" stroke-linecap="butt"/>
<line x1="522.69" y1="197.78" x2="547.23" y2="189.19" stroke="#58BDC2" stroke-width="1.35" stroke-linecap="butt"/>
<line x1="524.52" y1="203.20" x2="549.25" y2="195.17" stroke="#58BDC2" stroke-width="1.35" stroke-linecap="butt"/>
<line x1="526.23" y1="208.66" x2="551.13" y2="201.18" stroke="#58BDC2" stroke-width="1.35" stroke-linecap="butt"/>
<line x1="527.81" y1="214.16" x2="552.87" y2="207.24" stroke="#58BDC2" stroke-width="1.35" stroke-linecap="butt"/>
<line x1="529.27" y1="219.69" x2="554.48" y2="213.34" stroke="#58BDC2" stroke-width="1.35" stroke-linecap="butt"/>
<line x1="530.61" y1="225.26" x2="555.95" y2="219.47" stroke="#58BDC2" stroke-width="1.35" stroke-linecap="butt"/>
<line x1="531.82" y1="230.85" x2="557.29" y2="225.63" stroke="#58BDC2" stroke-width="1.35" stroke-linecap="butt"/>
<line x1="532.90" y1="236.47" x2="558.48" y2="231.83" stroke="#58BDC2" stroke-width="1.35" stroke-linecap="butt"/>
<line x1="533.86" y1="242.11" x2="559.54" y2="238.04" stroke="#58BDC2" stroke-width="1.35" stroke-linecap="butt"/>
<line x1="534.69" y1="247.77" x2="560.46" y2="244.28" stroke="#58BDC2" stroke-width="1.35" stroke-linecap="butt"/>
<line x1="535.40" y1="253.45" x2="561.23" y2="250.54" stroke="#58BDC2" stroke-width="1.35" stroke-linecap="butt"/>
<line x1="535.97" y1="259.14" x2="561.87" y2="256.81" stroke="#58BDC2" stroke-width="1.35" stroke-linecap="butt"/>
<line x1="536.42" y1="264.85" x2="562.36" y2="263.10" stroke="#58BDC2" stroke-width="1.35" stroke-linecap="butt"/>
<line x1="536.74" y1="270.56" x2="562.72" y2="269.39" stroke="#58BDC2" stroke-width="1.35" stroke-linecap="butt"/>
<line x1="536.94" y1="276.28" x2="562.93" y2="275.69" stroke="#58BDC2" stroke-width="1.35" stroke-linecap="butt"/>
</svg>
