<svg xmlns="http://www.w3.org/2000/svg" viewBox="0 0 564 564" fill="none" aria-hidden="true">
<line x1="530.00" y1="282.00" x2="563.00" y2="282.00" stroke="#58BDC2" stroke-width="2.0" stroke-linecap="butt"/>
<line x1="543.80" y1="292.29" x2="562.78" y2="293.03" stroke="#58BDC2" stroke-width="1.2" stroke-linecap="butt"/>
<line x1="543.19" y1="302.56" x2="562.13" y2="304.05" stroke="#58BDC2" stroke-width="1.2" stroke-linecap="butt"/>
<line x1="542.18" y1="312.79" x2="561.05" y2="315.03" stroke="#58BDC2" stroke-width="1.2" stroke-linecap="butt"/>
<line x1="533.86" y1="321.89" x2="559.54" y2="325.96" stroke="#58BDC2" stroke-width="1.5" stroke-linecap="butt"/>
<line x1="538.97" y1="333.11" x2="557.60" y2="336.82" stroke="#58BDC2" stroke-width="1.2" stroke-linecap="butt"/>
<line x1="536.76" y1="343.16" x2="555.24" y2="347.60" stroke="#58BDC2" stroke-width="1.2" stroke-linecap="butt"/>
<line x1="534.16" y1="353.12" x2="552.45" y2="358.27" stroke="#58BDC2" stroke-width="1.2" stroke-linecap="butt"/>
<line x1="517.86" y1="358.64" x2="549.25" y2="368.83" stroke="#58BDC2" stroke-width="2.0" stroke-linecap="butt"/>
<line x1="527.81" y1="372.68" x2="545.63" y2="379.26" stroke="#58BDC2" stroke-width="1.2" stroke-linecap="butt"/>
<line x1="524.06" y1="382.26" x2="541.61" y2="389.53" stroke="#58BDC2" stroke-width="1.2" stroke-linecap="butt"/>
<line x1="519.93" y1="391.69" x2="537.19" y2="399.64" stroke="#58BDC2" stroke-width="1.2" stroke-linecap="butt"/>
<line x1="509.21" y1="397.77" x2="532.37" y2="409.57" stroke="#58BDC2" stroke-width="1.5" stroke-linecap="butt"/>
<line x1="510.59" y1="410.02" x2="527.17" y2="419.30" stroke="#58BDC2" stroke-width="1.2" stroke-linecap="butt"/>
<line x1="505.39" y1="418.89" x2="521.59" y2="428.82" stroke="#58BDC2" stroke-width="1.2" stroke-linecap="butt"/>
<line x1="499.85" y1="427.56" x2="515.64" y2="438.12" stroke="#58BDC2" stroke-width="1.2" stroke-linecap="butt"/>
<line x1="482.64" y1="427.77" x2="509.33" y2="447.17" stroke="#58BDC2" stroke-width="2.0" stroke-linecap="butt"/>
<line x1="487.75" y1="444.20" x2="502.67" y2="455.97" stroke="#58BDC2" stroke-width="1.2" stroke-linecap="butt"/>
<line x1="481.23" y1="452.16" x2="495.67" y2="464.49" stroke="#58BDC2" stroke-width="1.2" stroke-linecap="butt"/>
<line x1="474.39" y1="459.85" x2="488.34" y2="472.74" stroke="#58BDC2" stroke-width="1.2" stroke-linecap="butt"/>
<line x1="462.31" y1="462.31" x2="480.70" y2="480.70" stroke="#58BDC2" stroke-width="1.5" stroke-linecap="butt"/>
<line x1="459.85" y1="474.39" x2="472.74" y2="488.34" stroke="#58BDC2" stroke-width="1.2" stroke-linecap="butt"/>
<line x1="452.16" y1="481.23" x2="464.49" y2="495.67" stroke="#58BDC2" stroke-width="1.2" stroke-linecap="butt"/>
<line x1="444.20" y1="487.75" x2="455.97" y2="502.67" stroke="#58BDC2" stroke-width="1.2" stroke-linecap="butt"/>
<line x1="427.77" y1="482.64" x2="447.17" y2="509.33" stroke="#58BDC2" stroke-width="2.0" stroke-linecap="butt"/>
<line x1="427.56" y1="499.85" x2="438.12" y2="515.64" stroke="#58BDC2" stroke-width="1.2" stroke-linecap="butt"/>
<line x1="418.89" y1="505.39" x2="428.82" y2="521.59" stroke="#58BDC2" stroke-width="1.2" stroke-linecap="butt"/>
<line x1="410.02" y1="510.59" x2="419.30" y2="527.17" stroke="#58BDC2" stroke-width="1.2" stroke-linecap="butt"/>
<line x1="397.77" y1="509.21" x2="409.57" y2="532.37" stroke="#58BDC2" stroke-width="1.5" stroke-linecap="butt"/>
<line x1="391.69" y1="519.93" x2="399.64" y2="537.19" stroke="#58BDC2" stroke-width="1.2" stroke-linecap="butt"/>
<line x1="382.26" y1="524.06" x2="389.53" y2="541.61" stroke="#58BDC2" stroke-width="1.2" stroke-linecap="butt"/>
<line x1="372.68" y1="527.81" x2="379.26" y2="545.63" stroke="#58BDC2" stroke-width="1.2" stroke-linecap="butt"/>
<line x1="358.64" y1="517.86" x2="368.83" y2="549.25" stroke="#58BDC2" stroke-width="2.0" stroke-linecap="butt"/>
<line x1="353.12" y1="534.16" x2="358.27" y2="552.45" stroke="#58BDC2" stroke-width="1.2" stroke-linecap="butt"/>
<line x1="343.16" y1="536.76" x2="347.60" y2="555.24" stroke="#58BDC2" stroke-width="1.2" stroke-linecap="butt"/>
<line x1="333.11" y1="538.97" x2="336.82" y2="557.60" stroke="#58BDC2" stroke-width="1.2" stroke-linecap="butt"/>
<line x1="321.89" y1="533.86" x2="325.96" y2="559.54" stroke="#58BDC2" stroke-width="1.5" stroke-linecap="butt"/>
<line x1="282.00" y1="530.00" x2="282.00" y2="563.00" stroke="#58BDC2" stroke-width="2.0" stroke-linecap="butt"/>
<line x1="271.71" y1="543.80" x2="270.97" y2="562.78" stroke="#58BDC2" stroke-width="1.2" stroke-linecap="butt"/>
<line x1="261.44" y1="543.19" x2="259.95" y2="562.13" stroke="#58BDC2" stroke-width="1.2" stroke-linecap="butt"/>
<line x1="251.21" y1="542.18" x2="248.97" y2="561.05" stroke="#58BDC2" stroke-width="1.2" stroke-linecap="butt"/>
<line x1="242.11" y1="533.86" x2="238.04" y2="559.54" stroke="#58BDC2" stroke-width="1.5" stroke-linecap="butt"/>
<line x1="230.89" y1="538.97" x2="227.18" y2="557.60" stroke="#58BDC2" stroke-width="1.2" stroke-linecap="butt"/>
<line x1="220.84" y1="536.76" x2="216.40" y2="555.24" stroke="#58BDC2" stroke-width="1.2" stroke-linecap="butt"/>
<line x1="210.88" y1="534.16" x2="205.73" y2="552.45" stroke="#58BDC2" stroke-width="1.2" stroke-linecap="butt"/>
<line x1="205.36" y1="517.86" x2="195.17" y2="549.25" stroke="#58BDC2" stroke-width="2.0" stroke-linecap="butt"/>
<line x1="191.32" y1="527.81" x2="184.74" y2="545.63" stroke="#58BDC2" stroke-width="1.2" stroke-linecap="butt"/>
<line x1="181.74" y1="524.06" x2="174.47" y2="541.61" stroke="#58BDC2" stroke-width="1.2" stroke-linecap="butt"/>
<line x1="172.31" y1="519.93" x2="164.36" y2="537.19" stroke="#58BDC2" stroke-width="1.2" stroke-linecap="butt"/>
<line x1="166.23" y1="509.21" x2="154.43" y2="532.37" stroke="#58BDC2" stroke-width="1.5" stroke-linecap="butt"/>
<line x1="153.98" y1="510.59" x2="144.70" y2="527.17" stroke="#58BDC2" stroke-width="1.2" stroke-linecap="butt"/>
<line x1="145.11" y1="505.39" x2="135.18" y2="521.59" stroke="#58BDC2" stroke-width="1.2" stroke-linecap="butt"/>
<line x1="136.44" y1="499.85" x2="125.88" y2="515.64" stroke="#58BDC2" stroke-width="1.2" stroke-linecap="butt"/>
<line x1="136.23" y1="482.64" x2="116.83" y2="509.33" stroke="#58BDC2" stroke-width="2.0" stroke-linecap="butt"/>
<line x1="119.80" y1="487.75" x2="108.03" y2="502.67" stroke="#58BDC2" stroke-width="1.2" stroke-linecap="butt"/>
<line x1="111.84" y1="481.23" x2="99.51" y2="495.67" stroke="#58BDC2" stroke-width="1.2" stroke-linecap="butt"/>
<line x1="104.15" y1="474.39" x2="91.26" y2="488.34" stroke="#58BDC2" stroke-width="1.2" stroke-linecap="butt"/>
<line x1="101.69" y1="462.31" x2="83.30" y2="480.70" stroke="#58BDC2" stroke-width="1.5" stroke-linecap="butt"/>
<line x1="89.61" y1="459.85" x2="75.66" y2="472.74" stroke="#58BDC2" stroke-width="1.2" stroke-linecap="butt"/>
<line x1="82.77" y1="452.16" x2="68.33" y2="464.49" stroke="#58BDC2" stroke-width="1.2" stroke-linecap="butt"/>
<line x1="76.25" y1="444.20" x2="61.33" y2="455.97" stroke="#58BDC2" stroke-width="1.2" stroke-linecap="butt"/>
<line x1="81.36" y1="427.77" x2="54.67" y2="447.17" stroke="#58BDC2" stroke-width="2.0" stroke-linecap="butt"/>
<line x1="64.15" y1="427.56" x2="48.36" y2="438.12" stroke="#58BDC2" stroke-width="1.2" stroke-linecap="butt"/>
<line x1="58.61" y1="418.89" x2="42.41" y2="428.82" stroke="#58BDC2" stroke-width="1.2" stroke-linecap="butt"/>
<line x1="53.41" y1="410.02" x2="36.83" y2="419.30" stroke="#58BDC2" stroke-width="1.2" stroke-linecap="butt"/>
<line x1="54.79" y1="397.77" x2="31.63" y2="409.57" stroke="#58BDC2" stroke-width="1.5" stroke-linecap="butt"/>
<line x1="44.07" y1="391.69" x2="26.81" y2="399.64" stroke="#58BDC2" stroke-width="1.2" stroke-linecap="butt"/>
<line x1="39.94" y1="382.26" x2="22.39" y2="389.53" stroke="#58BDC2" stroke-width="1.2" stroke-linecap="butt"/>
<line x1="36.19" y1="372.68" x2="18.37" y2="379.26" stroke="#58BDC2" stroke-width="1.2" stroke-linecap="butt"/>
<line x1="46.14" y1="358.64" x2="14.75" y2="368.83" stroke="#58BDC2" stroke-width="2.0" stroke-linecap="butt"/>
<line x1="29.84" y1="353.12" x2="11.55" y2="358.27" stroke="#58BDC2" stroke-width="1.2" stroke-linecap="butt"/>
<line x1="27.24" y1="343.16" x2="8.76" y2="347.60" stroke="#58BDC2" stroke-width="1.2" stroke-linecap="butt"/>
<line x1="25.03" y1="333.11" x2="6.40" y2="336.82" stroke="#58BDC2" stroke-width="1.2" stroke-linecap="butt"/>
<line x1="30.14" y1="321.89" x2="4.46" y2="325.96" stroke="#58BDC2" stroke-width="1.5" stroke-linecap="butt"/>
<line x1="34.00" y1="282.00" x2="1.00" y2="282.00" stroke="#58BDC2" stroke-width="2.0" stroke-linecap="butt"/>
<line x1="20.20" y1="271.71" x2="1.22" y2="270.97" stroke="#58BDC2" stroke-width="1.2" stroke-linecap="butt"/>
<line x1="20.81" y1="261.44" x2="1.87" y2="259.95" stroke="#58BDC2" stroke-width="1.2" stroke-linecap="butt"/>
<line x1="21.82" y1="251.21" x2="2.95" y2="248.97" stroke="#58BDC2" stroke-width="1.2" stroke-linecap="butt"/>
<line x1="30.14" y1="242.11" x2="4.46" y2="238.04" stroke="#58BDC2" stroke-width="1.5" stroke-linecap="butt"/>
<line x1="25.03" y1="230.89" x2="6.40" y2="227.18" stroke="#58BDC2" stroke-width="1.2" stroke-linecap="butt"/>
<line x1="27.24" y1="220.84" x2="8.76" y2="216.40" stroke="#58BDC2" stroke-width="1.2" stroke-linecap="butt"/>
<line x1="29.84" y1="210.88" x2="11.55" y2="205.73" stroke="#58BDC2" stroke-width="1.2" stroke-linecap="butt"/>
<line x1="46.14" y1="205.36" x2="14.75" y2="195.17" stroke="#58BDC2" stroke-width="2.0" stroke-linecap="butt"/>
<line x1="36.19" y1="191.32" x2="18.37" y2="184.74" stroke="#58BDC2" stroke-width="1.2" stroke-linecap="butt"/>
<line x1="39.94" y1="181.74" x2="22.39" y2="174.47" stroke="#58BDC2" stroke-width="1.2" stroke-linecap="butt"/>
<line x1="44.07" y1="172.31" x2="26.81" y2="164.36" stroke="#58BDC2" stroke-width="1.2" stroke-linecap="butt"/>
<line x1="54.79" y1="166.23" x2="31.63" y2="154.43" stroke="#58BDC2" stroke-width="1.5" stroke-linecap="butt"/>
<line x1="53.41" y1="153.98" x2="36.83" y2="144.70" stroke="#58BDC2" stroke-width="1.2" stroke-linecap="butt"/>
<line x1="58.61" y1="145.11" x2="42.41" y2="135.18" stroke="#58BDC2" stroke-width="1.2" stroke-linecap="butt"/>
<line x1="64.15" y1="136.44" x2="48.36" y2="125.88" stroke="#58BDC2" stroke-width="1.2" stroke-linecap="butt"/>
<line x1="81.36" y1="136.23" x2="54.67" y2="116.83" stroke="#58BDC2" stroke-width="2.0" stroke-linecap="butt"/>
<line x1="76.25" y1="119.80" x2="61.33" y2="108.03" stroke="#58BDC2" stroke-width="1.2" stroke-linecap="butt"/>
<line x1="82.77" y1="111.84" x2="68.33" y2="99.51" stroke="#58BDC2" stroke-width="1.2" stroke-linecap="butt"/>
<line x1="89.61" y1="104.15" x2="75.66" y2="91.26" stroke="#58BDC2" stroke-width="1.2" stroke-linecap="butt"/>
<line x1="101.69" y1="101.69" x2="83.30" y2="83.30" stroke="#58BDC2" stroke-width="1.5" stroke-linecap="butt"/>
<line x1="104.15" y1="89.61" x2="91.26" y2="75.66" stroke="#58BDC2" stroke-width="1.2" stroke-linecap="butt"/>
<line x1="111.84" y1="82.77" x2="99.51" y2="68.33" stroke="#58BDC2" stroke-width="1.2" stroke-linecap="butt"/>
<line x1="119.80" y1="76.25" x2="108.03" y2="61.33" stroke="#58BDC2" stroke-width="1.2" stroke-linecap="butt"/>
<line x1="136.23" y1="81.36" x2="116.83" y2="54.67" stroke="#58BDC2" stroke-width="2.0" stroke-linecap="butt"/>
<line x1="136.44" y1="64.15" x2="125.88" y2="48.36" stroke="#58BDC2" stroke-width="1.2" stroke-linecap="butt"/>
<line x1="145.11" y1="58.61" x2="135.18" y2="42.41" stroke="#58BDC2" stroke-width="1.2" stroke-linecap="butt"/>
<line x1="153.98" y1="53.41" x2="144.70" y2="36.83" stroke="#58BDC2" stroke-width="1.2" stroke-linecap="butt"/>
<line x1="166.23" y1="54.79" x2="154.43" y2="31.63" stroke="#58BDC2" stroke-width="1.5" stroke-linecap="butt"/>
<line x1="172.31" y1="44.07" x2="164.36" y2="26.81" stroke="#58BDC2" stroke-width="1.2" stroke-linecap="butt"/>
<line x1="181.74" y1="39.94" x2="174.47" y2="22.39" stroke="#58BDC2" stroke-width="1.2" stroke-linecap="butt"/>
<line x1="191.32" y1="36.19" x2="184.74" y2="18.37" stroke="#58BDC2" stroke-width="1.2" stroke-linecap="butt"/>
<line x1="205.36" y1="46.14" x2="195.17" y2="14.75" stroke="#58BDC2" stroke-width="2.0" stroke-linecap="butt"/>
<line x1="210.88" y1="29.84" x2="205.73" y2="11.55" stroke="#58BDC2" stroke-width="1.2" stroke-linecap="butt"/>
<line x1="220.84" y1="27.24" x2="216.40" y2="8.76" stroke="#58BDC2" stroke-width="1.2" stroke-linecap="butt"/>
<line x1="230.89" y1="25.03" x2="227.18" y2="6.40" stroke="#58BDC2" stroke-width="1.2" stroke-linecap="butt"/>
<line x1="242.11" y1="30.14" x2="238.04" y2="4.46" stroke="#58BDC2" stroke-width="1.5" stroke-linecap="butt"/>
<line x1="282.00" y1="34.00" x2="282.00" y2="1.00" stroke="#58BDC2" stroke-width="2.0" stroke-linecap="butt"/>
<line x1="292.29" y1="20.20" x2="293.03" y2="1.22" stroke="#58BDC2" stroke-width="1.2" stroke-linecap="butt"/>
<line x1="302.56" y1="20.81" x2="304.05" y2="1.87" stroke="#58BDC2" stroke-width="1.2" stroke-linecap="butt"/>
<line x1="312.79" y1="21.82" x2="315.03" y2="2.95" stroke="#58BDC2" stroke-width="1.2" stroke-linecap="butt"/>
<line x1="321.89" y1="30.14" x2="325.96" y2="4.46" stroke="#58BDC2" stroke-width="1.5" stroke-linecap="butt"/>
<line x1="333.11" y1="25.03" x2="336.82" y2="6.40" stroke="#58BDC2" stroke-width="1.2" stroke-linecap="butt"/>
<line x1="343.16" y1="27.24" x2="347.60" y2="8.76" stroke="#58BDC2" stroke-width="1.2" stroke-linecap="butt"/>
<line x1="353.12" y1="29.84" x2="358.27" y2="11.55" stroke="#58BDC2" stroke-width="1.2" stroke-linecap="butt"/>
<line x1="358.64" y1="46.14" x2="368.83" y2="14.75" stroke="#58BDC2" stroke-width="2.0" stroke-linecap="butt"/>
<line x1="372.68" y1="36.19" x2="379.26" y2="18.37" stroke="#58BDC2" stroke-width="1.2" stroke-linecap="butt"/>
<line x1="382.26" y1="39.94" x2="389.53" y2="22.39" stroke="#58BDC2" stroke-width="1.2" stroke-linecap="butt"/>
<line x1="391.69" y1="44.07" x2="399.64" y2="26.81" stroke="#58BDC2" stroke-width="1.2" stroke-linecap="butt"/>
<line x1="397.77" y1="54.79" x2="409.57" y2="31.63" stroke="#58BDC2" stroke-width="1.5" stroke-linecap="butt"/>
<line x1="410.02" y1="53.41" x2="419.30" y2="36.83" stroke="#58BDC2" stroke-width="1.2" stroke-linecap="butt"/>
<line x1="418.89" y1="58.61" x2="428.82" y2="42.41" stroke="#58BDC2" stroke-width="1.2" stroke-linecap="butt"/>
<line x1="427.56" y1="64.15" x2="438.12" y2="48.36" stroke="#58BDC2" stroke-width="1.2" stroke-linecap="butt"/>
<line x1="427.77" y1="81.36" x2="447.17" y2="54.67" stroke="#58BDC2" stroke-width="2.0" stroke-linecap="butt"/>
<line x1="444.20" y1="76.25" x2="455.97" y2="61.33" stroke="#58BDC2" stroke-width="1.2" stroke-linecap="butt"/>
<line x1="452.16" y1="82.77" x2="464.49" y2="68.33" stroke="#58BDC2" stroke-width="1.2" stroke-linecap="butt"/>
<line x1="459.85" y1="89.61" x2="472.74" y2="75.66" stroke="#58BDC2" stroke-width="1.2" stroke-linecap="butt"/>
<line x1="462.31" y1="101.69" x2="480.70" y2="83.30" stroke="#58BDC2" stroke-width="1.5" stroke-linecap="butt"/>
<line x1="474.39" y1="104.15" x2="488.34" y2="91.26" stroke="#58BDC2" stroke-width="1.2" stroke-linecap="butt"/>
<line x1="481.23" y1="111.84" x2="495.67" y2="99.51" stroke="#58BDC2" stroke-width="1.2" stroke-linecap="butt"/>
<line x1="487.75" y1="119.80" x2="502.67" y2="108.03" stroke="#58BDC2" stroke-width="1.2" stroke-linecap="butt"/>
<line x1="482.64" y1="136.23" x2="509.33" y2="116.83" stroke="#58BDC2" stroke-width="2.0" stroke-linecap="butt"/>
<line x1="499.85" y1="136.44" x2="515.64" y2="125.88" stroke="#58BDC2" stroke-width="1.2" stroke-linecap="butt"/>
<line x1="505.39" y1="145.11" x2="521.59" y2="135.18" stroke="#58BDC2" stroke-width="1.2" stroke-linecap="butt"/>
<line x1="510.59" y1="153.98" x2="527.17" y2="144.70" stroke="#58BDC2" stroke-width="1.2" stroke-linecap="butt"/>
<line x1="509.21" y1="166.23" x2="532.37" y2="154.43" stroke="#58BDC2" stroke-width="1.5" stroke-linecap="butt"/>
<line x1="519.93" y1="172.31" x2="537.19" y2="164.36" stroke="#58BDC2" stroke-width="1.2" stroke-linecap="butt"/>
<line x1="524.06" y1="181.74" x2="541.61" y2="174.47" stroke="#58BDC2" stroke-width="1.2" stroke-linecap="butt"/>
<line x1="527.81" y1="191.32" x2="545.63" y2="184.74" stroke="#58BDC2" stroke-width="1.2" stroke-linecap="butt"/>
<line x1="517.86" y1="205.36" x2="549.25" y2="195.17" stroke="#58BDC2" stroke-width="2.0" stroke-linecap="butt"/>
<line x1="534.16" y1="210.88" x2="552.45" y2="205.73" stroke="#58BDC2" stroke-width="1.2" stroke-linecap="butt"/>
<line x1="536.76" y1="220.84" x2="555.24" y2="216.40" stroke="#58BDC2" stroke-width="1.2" stroke-linecap="butt"/>
<line x1="538.97" y1="230.89" x2="557.60" y2="227.18" stroke="#58BDC2" stroke-width="1.2" stroke-linecap="butt"/>
<line x1="533.86" y1="242.11" x2="559.54" y2="238.04" stroke="#58BDC2" stroke-width="1.5" stroke-linecap="butt"/>
</svg>
